<svg aria-hidden="true" style="position: absolute; width: 0; height: 0; overflow: hidden;" version="1.1" xmlns="http://www.w3.org/2000/svg" xmlns:xlink="http://www.w3.org/1999/xlink">
<defs>
<symbol id="icon-facebook" viewBox="0 0 32 32">
<path d="M21.328 5.312h2.923v-5.088c-1.232-0.143-2.66-0.224-4.107-0.224-0.052 0-0.104 0-0.157 0l0.008-0c-4.213 0-7.099 2.65-7.099 7.52v4.48h-4.646v5.688h4.646v14.312h5.699v-14.31h4.459l0.709-5.688h-5.17v-3.922c0-1.643 0.443-2.768 2.734-2.768z"></path>
</symbol>
<symbol id="icon-instagram" viewBox="0 0 32 32">
<path d="M31.968 9.408c-0.074-1.701-0.349-2.869-0.742-3.882-0.424-1.111-1.054-2.059-1.85-2.837l-0.001-0.001c-0.78-0.792-1.724-1.419-2.778-1.827l-0.054-0.018c-1.019-0.394-2.181-0.667-3.882-0.742-1.712-0.082-2.256-0.101-6.602-0.101-4.344 0-4.888 0.019-6.595 0.094-1.699 0.074-2.869 0.349-3.88 0.742-1.112 0.424-2.060 1.054-2.839 1.85l-0.001 0.001c-0.791 0.78-1.418 1.724-1.825 2.778l-0.018 0.054c-0.395 1.019-0.669 2.181-0.744 3.882-0.082 1.712-0.101 2.256-0.101 6.602 0 4.344 0.019 4.888 0.094 6.595 0.075 1.701 0.35 2.869 0.744 3.882 0.426 1.11 1.055 2.057 1.849 2.837l0.001 0.001c0.8 0.813 1.77 1.443 2.832 1.843 1.019 0.395 2.182 0.67 3.882 0.744 1.707 0.075 2.251 0.094 6.595 0.094 4.346 0 4.89-0.019 6.595-0.094 1.701-0.074 2.869-0.349 3.882-0.742 2.157-0.85 3.833-2.526 4.664-4.628l0.019-0.055c0.394-1.019 0.669-2.182 0.744-3.882 0.075-1.707 0.093-2.251 0.093-6.595s-0.006-4.888-0.080-6.595zM29.088 22.474c-0.070 1.563-0.333 2.406-0.55 2.97-0.552 1.399-1.64 2.486-3.004 3.024l-0.036 0.012c-0.56 0.219-1.411 0.482-2.968 0.55-1.688 0.075-2.194 0.094-6.464 0.094-4.269 0-4.782-0.019-6.464-0.094-1.563-0.069-2.406-0.331-2.97-0.55-0.721-0.269-1.334-0.676-1.836-1.192l-0.001-0.001c-0.517-0.503-0.924-1.117-1.184-1.803l-0.011-0.034c-0.218-0.563-0.48-1.413-0.549-2.97-0.075-1.688-0.094-2.195-0.094-6.464 0-4.27 0.019-4.784 0.094-6.464 0.069-1.563 0.331-2.406 0.549-2.97 0.269-0.722 0.678-1.337 1.198-1.837l0.002-0.002c0.504-0.517 1.119-0.923 1.806-1.182l0.034-0.011c0.56-0.219 1.411-0.48 2.968-0.55 1.688-0.074 2.195-0.093 6.464-0.093 4.275 0 4.782 0.019 6.464 0.093 1.563 0.069 2.406 0.331 2.97 0.55 0.693 0.256 1.325 0.662 1.837 1.194 0.531 0.52 0.938 1.144 1.195 1.84 0.218 0.56 0.48 1.411 0.549 2.968 0.075 1.688 0.094 2.194 0.094 6.464 0 4.269-0.019 4.768-0.094 6.458z"></path>
<path d="M16.059 7.782c-4.539 0.002-8.218 3.682-8.219 8.221v0c0.091 4.471 3.737 8.060 8.221 8.060s8.13-3.589 8.221-8.052l0-0.009c-0.001-4.54-3.681-8.22-8.221-8.221h-0zM16.059 21.334c-2.945-0-5.332-2.388-5.332-5.333s2.388-5.333 5.333-5.333c0 0 0.001 0 0.001 0h-0c2.946 0 5.334 2.388 5.334 5.334s-2.388 5.334-5.334 5.334v0zM26.525 7.458c0 1.060-0.86 1.92-1.92 1.92s-1.92-0.86-1.92-1.92v0c0-1.060 0.86-1.92 1.92-1.92s1.92 0.86 1.92 1.92v0z"></path>
</symbol>
<symbol id="icon-linkedin" viewBox="0 0 32 32">
<path d="M31.992 32h0.008v-11.738c0-5.741-1.237-10.163-7.947-10.163-3.227 0-5.392 1.77-6.277 3.45h-0.093v-2.914h-6.365v21.363h6.627v-10.578c0-2.786 0.528-5.48 3.978-5.48 3.398 0 3.448 3.179 3.448 5.658v10.402h6.621zM0.528 10.635h6.635v21.365h-6.635v-21.365zM3.843 0c-2.123 0-3.843 1.721-3.843 3.843v0c0 2.12 1.722 3.878 3.843 3.878 2.12 0 3.842-1.757 3.842-3.878s-1.72-3.841-3.841-3.843h-0z"></path>
</symbol>
<symbol id="icon-logo1" viewBox="0 0 29 32">
<path d="M4.174 0.061l4.875 4.615-9.049-0.006v22.392h23.652v-8.561l4.87 4.61v-23.050h-24.348zM23.438 17.958l-13.823-13.085h13.823v13.085zM19.146 23.786h-15.404v-15.059h1.089v14.040h14.315v1.020zM7.381 30.042l-0.569 1.172-0.569-1.172h-0.477l0.831 1.562v0.911h0.431v-0.911l0.829-1.562h-0.475zM8.096 32.515l0.2-0.576h0.958l0.202 0.576h0.449l-0.936-2.473h-0.386l-0.934 2.473h0.447zM8.775 30.568l0.358 1.025h-0.717l0.358-1.025zM11.041 31.534c-0.058 0.087-0.093 0.194-0.093 0.31 0 0.001 0 0.003 0 0.004v-0c0 0.209 0.073 0.378 0.219 0.508s0.343 0.194 0.588 0.194c0.244 0 0.455-0.067 0.632-0.199l0.139 0.165h0.479l-0.363-0.43c0.143-0.195 0.214-0.445 0.214-0.749h-0.358c0 0.167-0.035 0.318-0.103 0.454l-0.478-0.563 0.168-0.122c0.102-0.069 0.188-0.155 0.255-0.255l0.002-0.003c0.049-0.080 0.078-0.177 0.078-0.281 0-0.001 0-0.003-0-0.004v0c0-0.003 0-0.006 0-0.010 0-0.152-0.067-0.289-0.173-0.382l-0.001-0c-0.11-0.1-0.256-0.16-0.417-0.16-0.009 0-0.017 0-0.026 0.001l0.001-0c-0.199 0-0.358 0.057-0.475 0.17s-0.177 0.265-0.177 0.459c0 0.079 0.019 0.161 0.056 0.246 0.039 0.085 0.106 0.188 0.202 0.309-0.183 0.131-0.306 0.245-0.368 0.341zM12.157 32.081c-0.106 0.086-0.242 0.138-0.39 0.139h-0c-0.006 0-0.013 0.001-0.020 0.001-0.107 0-0.203-0.041-0.276-0.108l0 0c-0.068-0.067-0.111-0.161-0.111-0.264 0-0.005 0-0.010 0-0.015l-0 0.001c0-0.132 0.068-0.25 0.204-0.353l0.053-0.038 0.54 0.637zM11.713 30.985c-0.117-0.144-0.175-0.263-0.175-0.358 0-0.083 0.024-0.151 0.072-0.206 0.045-0.050 0.109-0.082 0.181-0.082 0.004 0 0.008 0 0.011 0l-0.001-0c0.003-0 0.006-0 0.009-0 0.068 0 0.13 0.027 0.176 0.070l-0-0c0.049 0.046 0.073 0.101 0.073 0.165 0 0.003 0 0.005 0 0.008 0 0.092-0.041 0.174-0.105 0.231l-0 0-0.053 0.043-0.189 0.129zM15.738 32.328c0.17-0.148 0.267-0.355 0.292-0.618h-0.428c-0.023 0.176-0.077 0.303-0.161 0.378s-0.212 0.114-0.381 0.114c-0.184 0-0.325-0.070-0.421-0.211s-0.143-0.344-0.143-0.612v-0.218c0.003-0.264 0.054-0.463 0.153-0.6 0.101-0.137 0.245-0.205 0.431-0.205 0.161 0 0.282 0.040 0.365 0.118s0.136 0.207 0.157 0.384h0.428c-0.028-0.271-0.124-0.48-0.291-0.628s-0.386-0.223-0.659-0.223c-0.202 0-0.381 0.049-0.536 0.145-0.155 0.099-0.277 0.239-0.352 0.405l-0.002 0.006c-0.079 0.173-0.125 0.375-0.125 0.588 0 0.010 0 0.020 0 0.031l-0-0.002v0.231c0.003 0.227 0.046 0.427 0.127 0.6s0.198 0.305 0.346 0.399c0.151 0.093 0.325 0.139 0.522 0.139 0.282 0 0.508-0.073 0.678-0.221zM18.264 31.982c0.083-0.183 0.126-0.397 0.126-0.639v-0.137c0-0.007 0-0.016 0-0.025 0-0.22-0.048-0.43-0.133-0.618l0.004 0.009c-0.079-0.175-0.203-0.317-0.358-0.415l-0.004-0.002c-0.155-0.097-0.333-0.146-0.535-0.146s-0.38 0.049-0.536 0.147c-0.155 0.097-0.275 0.238-0.362 0.423-0.081 0.179-0.128 0.388-0.128 0.608 0 0.011 0 0.021 0 0.032l-0-0.002v0.139c0.001 0.237 0.044 0.445 0.129 0.626 0.086 0.182 0.207 0.321 0.364 0.42 0.157 0.097 0.336 0.146 0.536 0.146 0.203 0 0.382-0.049 0.537-0.146 0.156-0.099 0.276-0.239 0.36-0.422zM17.804 30.584c0.104 0.146 0.156 0.357 0.156 0.631v0.129c0 0.278-0.051 0.49-0.154 0.635-0.102 0.145-0.248 0.218-0.438 0.218-0.005 0-0.012 0-0.018 0-0.175 0-0.33-0.088-0.422-0.221l-0.001-0.002c-0.106-0.148-0.158-0.358-0.158-0.63v-0.143c0.002-0.266 0.056-0.472 0.159-0.616 0.093-0.133 0.245-0.219 0.418-0.219 0.006 0 0.013 0 0.019 0l-0.001-0c0.191 0 0.337 0.073 0.44 0.219z"></path>
</symbol>
<symbol id="icon-logo2" viewBox="0 0 26 32">
<path d="M10.953 1.934h-0.088c-0.134-0.008-0.269-0.012-0.403-0.015h-0.291c-0.254 0-0.513 0.006-0.771 0.019-0.009-0.001-0.019-0.001-0.029-0.001s-0.020 0-0.030 0.001l0.001-0c-2.471 0.144-4.765 0.762-6.839 1.764l0.108-0.047-0.276 0.133v14.171l0.648-0.22c0.568-0.195 1.174-0.371 1.8-0.534 1.548-0.414 3.33-0.664 5.166-0.688l0.015-0v1.862c-0.232 0.001-0.456 0.008-0.682 0.019h-0.054c-1.455 0.082-2.818 0.3-4.13 0.644l0.144-0.032c-1.804 0.459-3.384 1.092-4.853 1.904l0.104-0.053v-18.174c1.434-0.853 3.093-1.547 4.851-1.998l0.132-0.029c1.407-0.378 3.024-0.599 4.691-0.605h0.277c0.327 0.008 0.646 0.023 0.946 0.045 0.863 0.062 1.661 0.195 2.433 0.394l-0.094-0.021v1.832c-0.668-0.164-1.459-0.287-2.267-0.343l-0.046-0.003c-0.158-0.013-0.316-0.027-0.463-0.027zM14.178 3.807c0.406 0.031 0.828 0.046 1.253 0.046 1.757-0.007 3.457-0.238 5.077-0.665l-0.14 0.031c1.803-0.46 3.383-1.094 4.852-1.905l-0.105 0.053v17.85c-1.435 0.852-3.094 1.547-4.851 1.997l-0.132 0.029c-1.407 0.377-3.024 0.597-4.691 0.604h-0.004c-0.034 0-0.073 0-0.113 0-1.224 0-2.413-0.154-3.548-0.442l0.099 0.021v-17.965c0.275 0.063 0.559 0.122 0.847 0.17 0.473 0.080 0.972 0.138 1.457 0.174zM23.262 3.946l-0.648 0.218c-0.391 0.144-0.992 0.328-1.601 0.493l-0.2 0.046c-1.613 0.432-3.465 0.683-5.376 0.69h-0.004c-0.422 0-0.811-0.012-1.187-0.036l-0.516-0.034v14.577l0.444 0.038c0.411 0.036 0.835 0.054 1.263 0.054 1.508-0.007 2.967-0.206 4.357-0.576l-0.12 0.027c1.27-0.323 2.372-0.73 3.416-1.237l-0.106 0.046 0.277-0.133v-14.175z"></path>
<path d="M1.752 27.072c-0.174-0.18-0.418-0.292-0.688-0.292-0.012 0-0.023 0-0.034 0.001l0.002-0c-0.004-0-0.009-0-0.014-0-0.145 0-0.283 0.029-0.409 0.081l0.007-0.003c-0.246 0.099-0.437 0.291-0.53 0.532l-0.002 0.006c-0.051 0.128-0.076 0.264-0.074 0.402v2.428c-0.006 0.172 0.027 0.341 0.095 0.498 0.058 0.125 0.14 0.236 0.243 0.326 0.097 0.081 0.211 0.141 0.333 0.173 0.118 0.033 0.241 0.050 0.363 0.050 0.135 0.001 0.269-0.028 0.392-0.084 0.364-0.162 0.614-0.521 0.614-0.938v-0.271h-0.636v0.216c0 0.004 0 0.009 0 0.015 0 0.073-0.014 0.142-0.039 0.206l0.001-0.004c-0.022 0.054-0.053 0.099-0.092 0.137l-0 0c-0.073 0.057-0.165 0.091-0.265 0.093h-0c-0.011 0.001-0.024 0.002-0.037 0.002-0.107 0-0.201-0.052-0.26-0.132l-0.001-0.001c-0.053-0.086-0.085-0.189-0.085-0.301 0-0.009 0-0.017 0.001-0.026l-0 0.001v-2.264c-0.004-0.125 0.023-0.25 0.078-0.363 0.059-0.090 0.159-0.149 0.273-0.149 0.013 0 0.026 0.001 0.039 0.002l-0.002-0c0.004-0 0.008-0 0.012-0 0.111 0 0.209 0.054 0.271 0.136l0.001 0.001c0.066 0.086 0.105 0.194 0.105 0.312 0 0.005-0 0.010-0 0.014v-0.001 0.21h0.628v-0.248c0-0.003 0-0.007 0-0.011 0-0.149-0.028-0.291-0.080-0.422l0.003 0.008c-0.050-0.133-0.122-0.246-0.213-0.342l0 0zM5.523 27.044c-0.194-0.164-0.446-0.265-0.722-0.266h-0c-0.129 0.001-0.258 0.024-0.379 0.068-0.262 0.094-0.468 0.287-0.579 0.533l-0.003 0.006c-0.064 0.148-0.096 0.308-0.093 0.47v2.328c-0.004 0.164 0.028 0.326 0.093 0.477 0.058 0.125 0.141 0.237 0.246 0.326 0.097 0.090 0.211 0.159 0.335 0.205 0.112 0.043 0.242 0.067 0.378 0.067 0.277 0 0.531-0.103 0.724-0.273l-0.001 0.001c0.101-0.092 0.183-0.202 0.239-0.326 0.065-0.15 0.097-0.313 0.093-0.477v-2.329c0-0.006 0-0.013 0-0.020 0-0.163-0.034-0.317-0.096-0.457l0.003 0.007c-0.059-0.133-0.14-0.246-0.239-0.34l-0-0zM5.226 30.183c0.001 0.011 0.002 0.024 0.002 0.036 0 0.118-0.049 0.225-0.128 0.301l-0 0c-0.080 0.068-0.185 0.109-0.299 0.109s-0.219-0.041-0.3-0.109l0.001 0.001c-0.079-0.076-0.128-0.182-0.128-0.3 0-0.013 0.001-0.026 0.002-0.039l-0 0.002v-2.329c-0.001-0.011-0.002-0.023-0.002-0.036 0-0.118 0.049-0.225 0.128-0.301l0-0c0.080-0.068 0.185-0.109 0.299-0.109s0.219 0.041 0.3 0.109l-0.001-0.001c0.079 0.076 0.128 0.183 0.128 0.3 0 0.013-0.001 0.025-0.002 0.038l0-0.002v2.33zM10.475 31.223v-4.408h-0.61l-0.802 2.333h-0.011l-0.808-2.333h-0.604v4.408h0.63v-2.682h0.012l0.616 1.896h0.314l0.622-1.896h0.011v2.682h0.63zM14.053 27.123c-0.097-0.109-0.22-0.191-0.356-0.241-0.129-0.043-0.277-0.068-0.431-0.068-0.009 0-0.018 0-0.027 0l0.001-0h-0.936v4.408h0.628v-1.722h0.323c0.196 0.009 0.391-0.032 0.567-0.12 0.144-0.081 0.261-0.195 0.343-0.333l0.002-0.004c0.072-0.117 0.122-0.248 0.144-0.384 0.024-0.166 0.036-0.333 0.034-0.501 0.006-0.211-0.015-0.423-0.061-0.63-0.044-0.159-0.125-0.295-0.232-0.405l0 0zM13.729 28.468c-0.003 0.084-0.024 0.163-0.060 0.233l0.001-0.003c-0.036 0.068-0.092 0.121-0.16 0.153l-0.002 0.001c-0.078 0.036-0.168 0.056-0.264 0.056-0.011 0-0.023-0-0.034-0.001l0.002 0h-0.287v-1.499h0.324c0.009-0 0.020-0.001 0.030-0.001 0.092 0 0.179 0.021 0.257 0.057l-0.004-0.002c0.065 0.038 0.116 0.094 0.146 0.161l0.001 0.002c0.035 0.077 0.053 0.161 0.055 0.245v0.293c0 0.102 0.006 0.209 0 0.303h-0.006zM17.029 26.815h-0.515l-0.972 4.408h0.628l0.184-0.947h0.856l0.185 0.947h0.628l-0.996-4.408zM16.449 29.676l0.309-1.598h0.012l0.307 1.598h-0.628zM21.088 29.471h-0.012l-0.948-2.656h-0.604v4.408h0.628v-2.651h0.013l0.96 2.651h0.591v-4.408h-0.628v2.656zM24.927 26.815l-0.506 1.752h-0.013l-0.506-1.752h-0.664l0.863 2.545v1.863h0.628v-1.863l0.863-2.545h-0.666z"></path>
</symbol>
<symbol id="icon-logo3" viewBox="0 0 34 32">
<path d="M5.643 31.381c0.025 0.001 0.048 0.010 0.065 0.026l-0-0 0.166 0.158c-0.13 0.129-0.289 0.232-0.468 0.302-0.21 0.076-0.435 0.114-0.663 0.108-0.213 0.004-0.425-0.030-0.622-0.101-0.182-0.066-0.338-0.163-0.47-0.286l0.001 0.001c-0.128-0.121-0.231-0.268-0.3-0.432l-0.003-0.008c-0.068-0.163-0.107-0.351-0.107-0.549 0-0.006 0-0.011 0-0.017v0.001c-0-0.009-0-0.019-0-0.029 0-0.388 0.168-0.737 0.436-0.977l0.001-0.001c0.142-0.124 0.312-0.222 0.498-0.286 0.205-0.069 0.423-0.104 0.642-0.101 0.012-0 0.026-0 0.040-0 0.199 0 0.39 0.034 0.568 0.096l-0.012-0.004c0.165 0.062 0.316 0.149 0.447 0.255l-0.139 0.169c-0.010 0.012-0.021 0.022-0.034 0.030l-0.001 0c-0.014 0.008-0.030 0.013-0.048 0.013-0.003 0-0.006-0-0.008-0l0 0c-0.023-0.001-0.043-0.007-0.062-0.018l0.001 0-0.074-0.046-0.104-0.057c-0.095-0.047-0.205-0.082-0.321-0.1l-0.007-0.001c-0.069-0.012-0.149-0.018-0.23-0.018-0.006 0-0.012 0-0.018 0h0.001c-0.004-0-0.010-0-0.015-0-0.16 0-0.313 0.028-0.455 0.079l0.009-0.003c-0.137 0.048-0.26 0.12-0.362 0.213-0.103 0.098-0.183 0.213-0.235 0.339-0.054 0.128-0.085 0.276-0.085 0.432 0 0.006 0 0.011 0 0.017v-0.001c-0 0.006-0 0.012-0 0.019 0 0.157 0.031 0.307 0.088 0.444l-0.003-0.008c0.051 0.125 0.13 0.239 0.231 0.338 0.095 0.091 0.213 0.164 0.345 0.21 0.136 0.049 0.281 0.073 0.427 0.072 0.085 0.001 0.17-0.004 0.254-0.014 0.211-0.022 0.4-0.106 0.55-0.234l-0.001 0.001c0.021-0.017 0.049-0.028 0.078-0.029h0zM10.441 30.583c0.003 0.192-0.035 0.382-0.112 0.562-0.074 0.172-0.18 0.317-0.311 0.435l-0.001 0.001c-0.138 0.123-0.302 0.22-0.481 0.283l-0.010 0.003c-0.189 0.064-0.406 0.101-0.632 0.101s-0.443-0.037-0.646-0.105l0.014 0.004c-0.188-0.067-0.351-0.164-0.489-0.288l0.001 0.001c-0.133-0.12-0.24-0.267-0.313-0.432l-0.003-0.008c-0.071-0.166-0.112-0.359-0.112-0.562s0.041-0.396 0.116-0.572l-0.004 0.010c0.071-0.165 0.178-0.315 0.316-0.442 0.139-0.121 0.305-0.215 0.488-0.277 0.188-0.065 0.406-0.103 0.632-0.103s0.443 0.038 0.646 0.107l-0.014-0.004c0.184 0.065 0.351 0.163 0.49 0.286 0.137 0.126 0.244 0.274 0.314 0.435 0.077 0.181 0.115 0.373 0.112 0.565zM10.005 30.583c0-0.007 0-0.014 0-0.022 0-0.154-0.029-0.301-0.082-0.436l0.003 0.008c-0.101-0.26-0.308-0.46-0.566-0.549l-0.007-0.002c-0.137-0.047-0.295-0.074-0.459-0.074s-0.322 0.027-0.469 0.077l0.010-0.003c-0.136 0.049-0.254 0.121-0.352 0.214l0.001-0c-0.097 0.092-0.173 0.205-0.222 0.331l-0.002 0.006c-0.050 0.134-0.079 0.289-0.079 0.451s0.029 0.317 0.082 0.46l-0.003-0.009c0.101 0.26 0.309 0.46 0.569 0.547l0.007 0.002c0.296 0.097 0.622 0.097 0.918 0 0.133-0.046 0.254-0.119 0.35-0.211 0.1-0.098 0.175-0.213 0.222-0.338 0.056-0.145 0.082-0.298 0.079-0.451zM13.715 31.057l0.044 0.101c0.016-0.036 0.030-0.069 0.047-0.101 0.016-0.034 0.034-0.067 0.054-0.099l1.061-1.677c0.021-0.029 0.040-0.047 0.061-0.053s0.047-0.009 0.073-0.009c0.005 0 0.010 0 0.014 0l-0.001-0h0.314v2.728h-0.372v-2.091c-0.001-0.014-0.002-0.031-0.002-0.047s0.001-0.033 0.002-0.049l-0 0.002-1.069 1.701c-0.015 0.026-0.036 0.047-0.062 0.061l-0.001 0c-0.026 0.014-0.057 0.023-0.090 0.023-0.001 0-0.001 0-0.002 0h-0.060c-0.001 0-0.002 0-0.002 0-0.033 0-0.063-0.008-0.090-0.023l0.001 0c-0.026-0.014-0.047-0.035-0.061-0.061l-0-0.001-1.099-1.711v2.189h-0.359v-2.722h0.313c0.004-0 0.009-0 0.014-0 0.026 0 0.051 0.003 0.075 0.010l-0.002-0c0.026 0.011 0.046 0.030 0.058 0.053l1.084 1.678c0.021 0.030 0.040 0.063 0.054 0.098zM17.71 30.921v1.021h-0.414v-2.723h0.926c0.175-0.003 0.35 0.018 0.517 0.059 0.134 0.034 0.259 0.091 0.366 0.17 0.089 0.070 0.159 0.16 0.205 0.262l0.002 0.004c0.050 0.111 0.073 0.23 0.071 0.349 0 0.005 0 0.011 0 0.017 0 0.246-0.117 0.464-0.299 0.602l-0.002 0.001c-0.107 0.082-0.232 0.143-0.368 0.181-0.14 0.040-0.3 0.063-0.466 0.063-0.012 0-0.024-0-0.037-0l0.002 0-0.503-0.008zM17.71 30.629h0.503c0.109 0.002 0.218-0.013 0.322-0.041 0.089-0.026 0.166-0.066 0.234-0.119l-0.002 0.001c0.117-0.097 0.191-0.241 0.191-0.404 0-0.002 0-0.004-0-0.007v0c0.001-0.009 0.001-0.019 0.001-0.029 0-0.070-0.015-0.136-0.043-0.195l0.001 0.003c-0.035-0.074-0.084-0.136-0.144-0.185l-0.001-0.001c-0.139-0.093-0.31-0.149-0.494-0.149-0.023 0-0.046 0.001-0.069 0.003l0.003-0h-0.503v1.122zM23.294 31.947h-0.328c-0.002 0-0.003 0-0.005 0-0.032 0-0.062-0.010-0.087-0.026l0.001 0c-0.023-0.016-0.042-0.038-0.054-0.062l-0-0.001-0.282-0.658h-1.419l-0.293 0.658c-0.026 0.053-0.079 0.088-0.14 0.088-0.002 0-0.003-0-0.005-0h-0.329l1.246-2.728h0.432l1.263 2.728zM21.237 30.933h1.173l-0.495-1.109c-0.037-0.084-0.069-0.169-0.093-0.257l-0.048 0.142c-0.014 0.043-0.030 0.084-0.046 0.116l-0.49 1.108zM25.089 29.232c0.024 0.011 0.046 0.028 0.062 0.049l1.817 2.056v-2.117h0.372v2.728h-0.207c-0.001 0-0.003 0-0.005 0-0.029 0-0.057-0.006-0.082-0.017l0.001 0c-0.026-0.013-0.048-0.030-0.066-0.050l-0-0-1.816-2.054c0.001 0.014 0.001 0.030 0.001 0.047s-0.001 0.033-0.002 0.049l0-0.002v2.027h-0.372v-2.728h0.22c0.001 0 0.001 0 0.002 0 0.026 0 0.051 0.005 0.074 0.014l-0.001-0zM30.402 30.862v1.083h-0.415v-1.083l-1.149-1.643h0.372c0.003-0 0.006-0 0.009-0 0.030 0 0.057 0.009 0.080 0.023l-0.001-0c0.023 0.018 0.042 0.039 0.056 0.062l0.718 1.060c0.049 0.070 0.092 0.15 0.124 0.235l0.003 0.008 0.055-0.117c0.020-0.043 0.043-0.085 0.070-0.125l0.709-1.067c0.015-0.022 0.033-0.041 0.053-0.058l0-0c0.023-0.017 0.051-0.027 0.082-0.027 0.003 0 0.005 0 0.008 0l-0-0h0.376l-1.15 1.65zM13.509 24.642c0.181 0.020 0.364 0.036 0.549 0.050 2.804-1.090 5.174-2.872 6.818-5.126s2.485-4.878 2.421-7.546l-3.089-2.683c0.628 2.84 0.334 5.775-0.849 8.478s-3.208 5.067-5.849 6.827z"></path>
<path d="M12.407 24.518l0.083 0.014c2.822-1.754 4.973-4.203 6.176-7.030s1.402-5.904 0.571-8.83l-4.4-3.822c1.779 3.142 2.496 6.659 2.065 10.141-0.43 3.482-1.989 6.786-4.495 9.528zM27.328 15.173c-0.747 2.93-2.563 5.573-5.177 7.537-0.714 0.543-1.519 1.053-2.367 1.49l-0.092 0.043c2.129-0.543 4.085-1.504 5.718-2.808s2.901-2.917 3.703-4.714l-1.784-1.548z"></path>
<path d="M26.629 14.741l-2.541-2.207c-0.049 2.517-0.872 4.976-2.385 7.123s-3.66 3.901-6.217 5.083h0.012c0.57 0 1.139-0.030 1.705-0.088 2.39-0.848 4.502-2.197 6.146-3.926s2.771-3.785 3.278-5.985zM12.774 3.237l-3.031-2.637c-2.709 0.91-5.039 2.509-6.686 4.588-1.646 2.081-2.531 4.542-2.539 7.066 0.010 2.789 1.090 5.495 3.070 7.69 1.979 2.195 4.744 3.754 7.858 4.43 2.78-2.942 4.408-6.578 4.646-10.379s-0.924-7.57-3.319-10.758zM33.63 14.334c-0.011-3.308-1.528-6.478-4.221-8.818s-6.342-3.658-10.15-3.667c-0.009-0-0.020-0-0.030-0-1.83 0-3.589 0.305-5.228 0.866l0.114-0.034 18.556 16.122c0.605-1.313 0.958-2.849 0.96-4.468v-0.001z"></path>
</symbol>
<symbol id="icon-logo4" viewBox="0 0 67 32">
<path d="M33.724 15.285c-0.271-0.35-0.435-0.795-0.435-1.278 0-0.048 0.002-0.095 0.005-0.142l-0 0.006v-2.051c0-0.628 0.142-1.106 0.428-1.433 0.284-0.327 0.774-0.489 1.468-0.488 0.652 0 1.116 0.139 1.389 0.417 0.299 0.355 0.444 0.789 0.411 1.226v0.482h-1.166v-0.489c0.004-0.159-0.007-0.319-0.034-0.477-0.020-0.116-0.081-0.214-0.166-0.283l-0.001-0.001c-0.105-0.070-0.234-0.112-0.372-0.112-0.018 0-0.035 0.001-0.052 0.002l0.002-0c-0.015-0.001-0.033-0.002-0.050-0.002-0.147 0-0.283 0.044-0.397 0.12l0.003-0.002c-0.096 0.077-0.166 0.185-0.193 0.309l-0.001 0.004c-0.030 0.14-0.047 0.302-0.047 0.467 0 0.014 0 0.027 0 0.041l-0-0.002v2.489c-0.019 0.24 0.033 0.48 0.149 0.698 0.061 0.075 0.139 0.133 0.23 0.168l0.004 0.001c0.095 0.037 0.199 0.050 0.301 0.039 0.015 0.001 0.032 0.002 0.049 0.002 0.136 0 0.262-0.043 0.365-0.116l-0.002 0.001c0.090-0.075 0.153-0.18 0.174-0.299l0-0.003c0.023-0.135 0.037-0.29 0.037-0.448 0-0.018-0-0.036-0.001-0.054l0 0.003v-0.505h1.167v0.461c0.003 0.036 0.004 0.079 0.004 0.122 0 0.443-0.153 0.85-0.41 1.171l0.003-0.004c-0.268 0.304-0.725 0.457-1.397 0.457s-1.179-0.163-1.466-0.501zM38.583 15.306c-0.295-0.319-0.442-0.784-0.442-1.399v-2.156c0-0.609 0.147-1.070 0.442-1.383s0.787-0.469 1.478-0.467c0.686 0 1.176 0.156 1.471 0.467 0.294 0.313 0.444 0.774 0.444 1.383v2.156c0 0.609-0.149 1.077-0.449 1.398s-0.787 0.481-1.466 0.481-1.181-0.163-1.479-0.48zM40.604 14.789c0.106-0.2 0.154-0.419 0.14-0.638v-2.641c0.001-0.021 0.002-0.046 0.002-0.071 0-0.203-0.052-0.394-0.142-0.561l0.003 0.006c-0.062-0.076-0.142-0.135-0.234-0.17l-0.004-0.001c-0.068-0.027-0.146-0.042-0.229-0.042-0.028 0-0.056 0.002-0.083 0.005l0.003-0c-0.024-0.003-0.051-0.005-0.079-0.005-0.083 0-0.161 0.015-0.234 0.043l0.004-0.002c-0.096 0.036-0.177 0.096-0.239 0.171l-0.001 0.001c-0.107 0.195-0.154 0.41-0.14 0.626v2.652c-0.014 0.22 0.033 0.439 0.14 0.639 0.068 0.067 0.152 0.121 0.246 0.158 0.089 0.036 0.192 0.057 0.3 0.057s0.211-0.021 0.305-0.059l-0.006 0.002c0.096-0.037 0.178-0.091 0.246-0.158l-0 0v-0.013zM43.381 9.963h1.256l0.944 3.979 0.967-3.979h1.222l0.124 5.743h-0.904l-0.097-3.991-0.932 3.991h-0.725l-0.966-4.006-0.090 4.006h-0.913l0.114-5.743zM49.301 9.963h1.957c1.127 0 1.691 0.544 1.691 1.631 0 1.041-0.594 1.562-1.781 1.56h-0.666v2.553h-1.208l0.007-5.744zM50.973 12.417c0.119 0.014 0.24 0.004 0.356-0.028 0.114-0.031 0.22-0.083 0.309-0.154 0.139-0.194 0.2-0.422 0.174-0.649 0.001-0.019 0.001-0.041 0.001-0.063 0-0.163-0.022-0.321-0.062-0.471l0.003 0.013c-0.019-0.061-0.050-0.114-0.089-0.158l0 0c-0.042-0.047-0.093-0.086-0.149-0.114l-0.003-0.001c-0.141-0.059-0.304-0.094-0.476-0.094-0.022 0-0.044 0.001-0.066 0.002l0.003-0h-0.469v1.717h0.469zM54.692 9.963h1.297l1.331 5.744h-1.126l-0.263-1.324h-1.157l-0.27 1.324h-1.143l1.331-5.743zM55.8 13.717l-0.452-2.411-0.452 2.411h0.903zM58.394 9.963h0.846l1.618 3.277v-3.277h1.003v5.743h-0.804l-1.628-3.42v3.42h-1.036l0.002-5.743zM64.209 13.517l-1.345-3.546h1.133l0.821 2.277 0.77-2.277h1.109l-1.329 3.546v2.19h-1.159v-2.19zM35.59 18.218v0.3h-0.986v2.334h-0.413v-2.335h-0.991v-0.3h2.389zM38.679 20.852h-0.319c-0.003 0-0.006 0-0.009 0-0.030 0-0.058-0.009-0.081-0.025l0 0c-0.023-0.015-0.041-0.035-0.052-0.060l-0-0.001-0.285-0.626h-1.367l-0.284 0.626c-0.009 0.028-0.024 0.052-0.044 0.071l-0 0c-0.023 0.016-0.052 0.025-0.082 0.025-0.003 0-0.005-0-0.008-0h-0.318l1.208-2.634h0.42l1.223 2.624zM36.679 19.874h1.14l-0.484-1.072c-0.031-0.067-0.061-0.15-0.086-0.235l-0.003-0.014c-0.017 0.050-0.031 0.098-0.045 0.14l-0.044 0.11-0.478 1.070zM40.762 20.594c0.076 0.003 0.151 0.003 0.228 0 0.065-0.006 0.129-0.017 0.193-0.032 0.059-0.012 0.117-0.028 0.174-0.048 0.053-0.019 0.107-0.042 0.161-0.065v-0.592h-0.483c-0.001 0-0.002 0-0.004 0-0.023 0-0.045-0.008-0.062-0.022l0 0c-0.008-0.006-0.014-0.013-0.018-0.021l-0-0c-0.004-0.007-0.006-0.015-0.006-0.024 0-0.001 0-0.002 0-0.003v0-0.203h0.937v1.010c-0.146 0.092-0.316 0.165-0.496 0.212l-0.013 0.003c-0.1 0.026-0.2 0.043-0.302 0.055-0.104 0.010-0.224 0.016-0.346 0.016-0.002 0-0.005 0-0.007 0h0c-0.004 0-0.010 0-0.015 0-0.213 0-0.417-0.036-0.607-0.102l0.013 0.004c-0.186-0.065-0.347-0.158-0.486-0.277l0.002 0.002c-0.129-0.115-0.234-0.253-0.308-0.41l-0.003-0.008c-0.070-0.156-0.111-0.338-0.111-0.529 0-0.006 0-0.012 0-0.018v0.001c-0-0.005-0-0.011-0-0.017 0-0.193 0.040-0.377 0.112-0.543l-0.003 0.009c0.069-0.156 0.176-0.298 0.311-0.417 0.138-0.119 0.302-0.211 0.484-0.273 0.206-0.068 0.427-0.101 0.647-0.098 0.112 0 0.225 0.007 0.336 0.023 0.098 0.014 0.195 0.036 0.287 0.067 0.085 0.027 0.166 0.063 0.242 0.104 0.074 0.041 0.144 0.087 0.211 0.138l-0.116 0.163c-0.010 0.015-0.023 0.027-0.039 0.035l-0.001 0c-0.016 0.009-0.035 0.014-0.055 0.014h-0c-0.028-0.001-0.053-0.008-0.075-0.021l0.001 0c-0.049-0.023-0.088-0.044-0.126-0.066l0.007 0.004c-0.045-0.025-0.099-0.049-0.154-0.069l-0.008-0.002c-0.062-0.022-0.136-0.042-0.213-0.057l-0.009-0.001c-0.087-0.015-0.188-0.023-0.29-0.023-0.006 0-0.011 0-0.017 0h0.001c-0.005-0-0.011-0-0.017-0-0.161 0-0.316 0.027-0.46 0.076l0.010-0.003c-0.134 0.047-0.256 0.118-0.356 0.209-0.095 0.090-0.171 0.199-0.222 0.321l-0.002 0.006c-0.051 0.13-0.081 0.281-0.081 0.439s0.030 0.309 0.084 0.448l-0.003-0.008c0.053 0.124 0.135 0.237 0.242 0.332 0.099 0.090 0.219 0.161 0.352 0.208 0.154 0.046 0.316 0.063 0.479 0.052zM44.612 20.551h1.319v0.301h-1.722v-2.634h0.412l-0.009 2.334zM47.303 20.852h-0.412v-2.634h0.412v2.634zM48.84 18.23c0.025 0.012 0.046 0.028 0.063 0.048l0 0 1.766 1.985c-0.001-0.014-0.002-0.030-0.002-0.047s0.001-0.033 0.002-0.049l-0 0.002v-1.963h0.36v2.645h-0.208c-0.004 0-0.008 0-0.012 0-0.028 0-0.055-0.006-0.079-0.017l0.001 0c-0.025-0.013-0.047-0.030-0.065-0.050l-0-0-1.764-1.984v2.049h-0.346v-2.634h0.215c0.023 0 0.047 0.004 0.068 0.012zM54.070 18.218v0.289h-1.463v0.87h1.186v0.279h-1.186v0.899h1.463v0.29h-1.889v-2.627h1.889zM10.782 1.95l18.343 4.497v15.757l-18.343-4.494v-15.76zM9.605 0.607v17.867l20.693 5.074v-17.865l-20.693-5.076z"></path>
<path d="M20.696 31.844l-20.696-5.079v-17.865l20.696 5.077v17.867z"></path>
<path d="M9.948 1.748l18.103 4.44-7.698 6.649-18.107-4.442 7.701-6.647zM9.605 0.607l-9.605 8.292 20.696 5.077 9.603-8.294-20.693-5.075zM21.86 30.838l8.439-7.287-8.439-2.071v9.358z"></path>
</symbol>
<symbol id="icon-Logo5" viewBox="0 0 64 32">
<path d="M16.155 27.062c0.147 0.167 0.225 0.376 0.222 0.59 0.001 0.013 0.001 0.029 0.001 0.045 0 0.132-0.030 0.257-0.082 0.369l0.002-0.005c-0.064 0.134-0.153 0.247-0.263 0.335l-0.002 0.001c-0.25 0.172-0.559 0.275-0.893 0.275-0.037 0-0.073-0.001-0.109-0.004l0.005 0h-1.753v-3.737h1.717c0.030-0.002 0.066-0.003 0.102-0.003 0.316 0 0.61 0.094 0.856 0.255l-0.006-0.004c0.111 0.085 0.199 0.193 0.257 0.314 0.058 0.122 0.084 0.254 0.077 0.386 0.010 0.205-0.060 0.408-0.199 0.571-0.133 0.149-0.318 0.251-0.523 0.292 0.232 0.039 0.443 0.152 0.592 0.32zM14.099 26.498h0.734c0.167 0.011 0.332-0.033 0.467-0.124 0.053-0.044 0.096-0.1 0.124-0.163l0.001-0.003c0.022-0.048 0.034-0.105 0.034-0.164 0-0.012-0.001-0.025-0.002-0.037l0 0.002c0.001-0.009 0.001-0.020 0.001-0.032 0-0.060-0.013-0.118-0.035-0.17l0.001 0.003c-0.029-0.066-0.070-0.122-0.122-0.166l-0.001-0c-0.118-0.080-0.265-0.128-0.422-0.128-0.021 0-0.041 0.001-0.061 0.002l0.003-0h-0.723v0.981zM15.371 27.932c0.057-0.045 0.103-0.103 0.134-0.169l0.001-0.003c0.025-0.052 0.039-0.114 0.039-0.179 0-0.010-0-0.021-0.001-0.031l0 0.001c0.001-0.008 0.001-0.018 0.001-0.027 0-0.067-0.015-0.13-0.042-0.187l0.001 0.003c-0.033-0.069-0.080-0.126-0.137-0.171l-0.001-0.001c-0.126-0.086-0.282-0.137-0.45-0.137-0.017 0-0.034 0.001-0.051 0.002l0.002-0h-0.77v1.028h0.78c0.175 0.009 0.349-0.036 0.493-0.13zM19.665 28.67l-0.955-1.461h-0.359v1.461h-0.822v-3.739h1.556c0.033-0.002 0.071-0.004 0.11-0.004 0.366 0 0.704 0.121 0.977 0.325l-0.004-0.003c0.217 0.203 0.349 0.47 0.37 0.753 0.002 0.023 0.003 0.051 0.003 0.078 0 0.272-0.097 0.522-0.258 0.717l0.002-0.002c-0.193 0.199-0.449 0.336-0.735 0.379l-0.007 0.001 1.017 1.494h-0.894zM18.351 26.699h0.672c0.467 0 0.7-0.188 0.7-0.566 0.001-0.009 0.001-0.020 0.001-0.031 0-0.071-0.014-0.138-0.040-0.2l0.001 0.003c-0.032-0.076-0.077-0.14-0.133-0.193l-0-0c-0.128-0.096-0.289-0.154-0.464-0.154-0.023 0-0.046 0.001-0.068 0.003l0.003-0h-0.68l0.008 1.137zM24.157 27.917h-1.637l-0.289 0.752h-0.862l1.503-3.696h0.932l1.497 3.696h-0.861l-0.283-0.752zM23.938 27.351l-0.598-1.578-0.598 1.578h1.197zM29.779 28.67h-0.815l-1.829-2.542v2.542h-0.814v-3.739h0.814l1.829 2.557v-2.557h0.815v3.739zM34.435 27.775c-0.169 0.282-0.426 0.511-0.738 0.659-0.317 0.149-0.689 0.236-1.081 0.236-0.023 0-0.047-0-0.070-0.001l0.003 0h-1.451v-3.739h1.452c0.020-0.001 0.043-0.001 0.067-0.001 0.391 0 0.763 0.085 1.097 0.238l-0.017-0.007c0.312 0.145 0.569 0.372 0.738 0.652 0.168 0.304 0.255 0.64 0.255 0.981s-0.088 0.676-0.255 0.981zM33.502 27.685c0.221-0.232 0.358-0.546 0.36-0.892v-0c0-0.327-0.128-0.644-0.36-0.892-0.253-0.2-0.576-0.321-0.928-0.321-0.033 0-0.065 0.001-0.098 0.003l0.004-0h-0.566v2.42h0.566c0.028 0.002 0.061 0.003 0.094 0.003 0.352 0 0.675-0.121 0.931-0.323l-0.003 0.002zM24.668 4.138s10.529 3.64 10.306 8.906v8.909s-10.521-3.641-10.302-8.908l-0.004-8.906zM44.353 19.867c1.989-1.253 4.289-2.029 6.69-2.258v-2.788c-2.767 0.976-5.114 2.747-6.69 5.046z"></path>
<path d="M43.159 20.707c1.627-3.001 4.449-5.316 7.884-6.47v-8.035s-14.995 5.184-14.678 12.684v12.683s0.668-0.232 1.72-0.667c0-0.406 0-0.814 0.048-1.226 0.31-3.482 2.117-6.708 5.026-8.97z"></path>
<path d="M41.733 25.419c0.088-0.959 0.273-1.841 0.548-2.682l-0.024 0.086c-1.81 1.953-2.907 4.377-3.135 6.931-0.022 0.241-0.034 0.482-0.040 0.731 1.251-0.547 2.198-1.013 3.126-1.51l-0.242 0.118c-0.266-1.208-0.344-2.445-0.233-3.673zM42.329 25.465c-0.029 0.308-0.046 0.667-0.046 1.029 0 0.813 0.084 1.606 0.245 2.371l-0.013-0.075c4.097-2.245 8.7-5.713 8.522-9.904v-0.365c-2.927 0.3-5.665 1.471-7.795 3.335-0.47 1.055-0.794 2.279-0.91 3.564l-0.003 0.045z"></path>
</symbol>
<symbol id="icon-logo6" viewBox="0 0 64 32">
<path d="M14.579 12.794h-0.002c-1.448 0-2.622 1.043-2.622 2.329v0.002c0 1.287 1.174 2.33 2.622 2.33h0.002c1.448 0 2.622-1.043 2.622-2.33v-0.001c0-1.287-1.174-2.331-2.622-2.331zM33.929 12.049c-0.004-1.787-0.805-3.5-2.227-4.764s-3.349-1.976-5.36-1.98c-2.012 0.003-3.94 0.715-5.363 1.979s-2.223 2.977-2.228 4.765v9.856s15.175-1.502 15.177-9.854v-0.002zM6.641 25.139c0.004 1.244 0.561 2.436 1.551 3.315s2.33 1.375 3.729 1.379c1.399-0.004 2.739-0.499 3.729-1.378s1.547-2.070 1.55-3.314v-6.858s-10.559 1.046-10.559 6.856zM11.921 26.367c-0.274 0-0.54-0.072-0.768-0.207-0.221-0.13-0.396-0.318-0.506-0.544l-0.003-0.008c-0.066-0.137-0.105-0.299-0.105-0.469 0-0.085 0.010-0.168 0.028-0.247l-0.001 0.007c0.053-0.238 0.185-0.458 0.378-0.629s0.44-0.289 0.708-0.336c0.081-0.015 0.175-0.024 0.27-0.024 0.19 0 0.371 0.034 0.539 0.097l-0.011-0.003c0.253 0.093 0.469 0.251 0.621 0.453s0.233 0.44 0.233 0.682c0 0.001 0 0.002 0 0.003 0 0.17-0.038 0.332-0.107 0.476l0.003-0.007c-0.075 0.157-0.175 0.29-0.298 0.399l-0.001 0.001c-0.128 0.115-0.281 0.205-0.449 0.268-0.157 0.059-0.338 0.094-0.528 0.094-0.001 0-0.002 0-0.003 0h0v-0.005zM21.573 24.168v2.576h-0.531v-2.576h0.531zM22.599 25.269v0.414h-1.171v-0.414h1.171zM22.723 24.168v0.416h-1.295v-0.416h1.295zM25.146 25.396v0.122c0 0.196-0.027 0.371-0.080 0.527-0.051 0.154-0.128 0.286-0.226 0.399l0.001-0.001c-0.097 0.109-0.212 0.191-0.347 0.249-0.126 0.055-0.274 0.086-0.428 0.086-0.005 0-0.011-0-0.016-0h0.001c-0.162 0-0.31-0.028-0.444-0.086-0.136-0.060-0.252-0.144-0.346-0.248l-0.001-0.001c-0.098-0.112-0.176-0.245-0.226-0.39l-0.002-0.008c-0.051-0.15-0.080-0.324-0.080-0.504 0-0.008 0-0.016 0-0.024v0.001-0.123c0-0.197 0.027-0.373 0.080-0.527s0.128-0.288 0.225-0.398c0.098-0.109 0.214-0.193 0.347-0.251 0.135-0.057 0.283-0.086 0.444-0.086 0.163 0 0.31 0.029 0.444 0.086 0.135 0.058 0.25 0.142 0.347 0.251 0.098 0.11 0.174 0.243 0.226 0.398 0.054 0.154 0.081 0.33 0.081 0.527zM24.61 25.518v-0.126c0-0.137-0.012-0.257-0.037-0.361-0.022-0.099-0.060-0.187-0.112-0.265l0.002 0.003c-0.045-0.067-0.104-0.121-0.174-0.158l-0.003-0.001c-0.067-0.035-0.146-0.055-0.229-0.055-0.003 0-0.006 0-0.009 0h0c-0.090 0-0.169 0.018-0.239 0.054-0.072 0.039-0.131 0.093-0.174 0.158l-0.001 0.002c-0.048 0.075-0.086 0.163-0.106 0.257l-0.001 0.005c-0.024 0.102-0.038 0.22-0.038 0.341 0 0.007 0 0.014 0 0.021v-0.001 0.126c0 0.135 0.012 0.255 0.037 0.36 0.024 0.104 0.061 0.192 0.109 0.264 0.048 0.071 0.107 0.124 0.177 0.161s0.149 0.054 0.239 0.054c0.089 0 0.169-0.018 0.238-0.054 0.072-0.039 0.131-0.094 0.174-0.159l0.001-0.002c0.047-0.072 0.083-0.16 0.108-0.264s0.037-0.225 0.037-0.36zM26.869 26.070c0-0.002 0-0.004 0-0.005 0-0.042-0.008-0.083-0.022-0.121l0.001 0.002c-0.016-0.042-0.041-0.076-0.074-0.102l-0-0c-0.044-0.036-0.095-0.068-0.149-0.092l-0.004-0.002c-0.069-0.032-0.154-0.065-0.241-0.092l-0.015-0.004c-0.136-0.043-0.246-0.086-0.353-0.135l0.020 0.008c-0.105-0.048-0.196-0.103-0.279-0.167l0.003 0.002c-0.076-0.061-0.138-0.134-0.185-0.217l-0.002-0.004c-0.043-0.081-0.068-0.177-0.068-0.279 0-0.005 0-0.009 0-0.014v0.001c0-0.107 0.024-0.205 0.071-0.292 0.047-0.089 0.113-0.164 0.198-0.226 0.085-0.064 0.185-0.113 0.301-0.147 0.117-0.034 0.245-0.051 0.384-0.051 0.19 0 0.356 0.034 0.497 0.103s0.251 0.162 0.329 0.281c0.079 0.12 0.119 0.255 0.119 0.409h-0.527c0-0.002 0-0.005 0-0.008 0-0.070-0.018-0.135-0.049-0.192l0.001 0.002c-0.032-0.059-0.081-0.106-0.139-0.136l-0.002-0.001c-0.064-0.031-0.138-0.049-0.217-0.049-0.007 0-0.014 0-0.021 0l0.001-0c-0.005-0-0.011-0-0.018-0-0.076 0-0.149 0.016-0.215 0.044l0.004-0.001c-0.057 0.023-0.104 0.062-0.138 0.11l-0.001 0.001c-0.029 0.043-0.046 0.095-0.046 0.152 0 0.001 0 0.003 0 0.004v-0c0 0.043 0.011 0.083 0.032 0.119 0.027 0.039 0.060 0.072 0.098 0.098l0.001 0.001c0.043 0.031 0.097 0.060 0.161 0.087s0.138 0.054 0.222 0.080c0.14 0.042 0.263 0.091 0.369 0.143 0.103 0.050 0.191 0.109 0.27 0.18l-0.001-0.001c0.072 0.066 0.127 0.141 0.163 0.225s0.054 0.179 0.054 0.285c0 0.007 0 0.016 0 0.025 0 0.205-0.1 0.387-0.254 0.499l-0.002 0.001c-0.082 0.062-0.181 0.108-0.295 0.139s-0.241 0.048-0.383 0.048c-0.134-0-0.264-0.018-0.387-0.053l0.010 0.002c-0.129-0.035-0.241-0.088-0.342-0.156l0.004 0.003c-0.099-0.068-0.18-0.156-0.238-0.258l-0.002-0.004c-0.060-0.106-0.091-0.232-0.091-0.377h0.533c0 0.080 0.012 0.148 0.037 0.203 0.024 0.054 0.059 0.099 0.103 0.134l0.001 0.001c0.046 0.034 0.101 0.060 0.16 0.074l0.003 0.001c0.063 0.015 0.133 0.023 0.209 0.023 0.005 0 0.012 0 0.018 0 0.075 0 0.146-0.015 0.212-0.041l-0.004 0.001c0.105-0.042 0.177-0.143 0.177-0.26 0-0.001 0-0.002-0-0.003v0zM28.912 24.168v2.576h-0.528v-2.576h0.528zM29.704 24.168v0.416h-2.101v-0.416h2.101zM31.735 26.329v0.414h-1.371v-0.414h1.371zM30.538 24.168v2.576h-0.531v-2.576h0.531zM31.556 25.217v0.403h-1.192v-0.403h1.192zM31.733 24.168v0.416h-1.369v-0.416h1.369zM32.045 24.168h0.96c0.197 0 0.367 0.030 0.508 0.089s0.252 0.146 0.328 0.261c0.077 0.116 0.115 0.258 0.115 0.427 0 0.138-0.023 0.256-0.070 0.355s-0.113 0.181-0.195 0.245l-0.002 0.001c-0.084 0.065-0.182 0.118-0.288 0.154l-0.007 0.002-0.168 0.089h-0.835l-0.004-0.414h0.621c0.005 0 0.011 0 0.017 0 0.078 0 0.152-0.018 0.217-0.051l-0.003 0.001c0.059-0.031 0.107-0.078 0.137-0.136l0.001-0.002c0.030-0.057 0.048-0.124 0.048-0.196 0-0.003-0-0.007-0-0.010v0c0-0.004 0-0.008 0-0.012 0-0.073-0.017-0.143-0.047-0.205l0.001 0.003c-0.031-0.060-0.079-0.108-0.138-0.137l-0.002-0.001c-0.064-0.031-0.139-0.049-0.219-0.049-0.006 0-0.012 0-0.018 0l0.001-0h-0.429v2.16h-0.531v-2.576zM33.485 26.744l-0.587-1.148 0.561-0.004 0.594 1.127v0.024h-0.568zM36.27 25.826h-0.656v-0.414h0.656c0.006 0 0.014 0 0.021 0 0.082 0 0.16-0.018 0.23-0.051l-0.003 0.001c0.061-0.031 0.109-0.080 0.139-0.139l0.001-0.002c0.028-0.061 0.044-0.133 0.044-0.209s-0.016-0.147-0.045-0.212l0.001 0.003c-0.030-0.067-0.078-0.122-0.139-0.159l-0.002-0.001c-0.066-0.038-0.144-0.061-0.228-0.061-0.007 0-0.014 0-0.020 0l0.001-0h-0.472v2.16h-0.531v-2.576h1.003c0.202 0 0.374 0.036 0.518 0.11 0.145 0.072 0.256 0.171 0.333 0.299s0.115 0.273 0.115 0.437c0 0.166-0.038 0.31-0.115 0.432-0.077 0.121-0.187 0.215-0.332 0.281s-0.317 0.099-0.519 0.099zM39.33 26.329v0.414h-1.371v-0.414h1.371zM38.133 24.168v2.576h-0.531v-2.576h0.531zM39.152 25.217v0.403h-1.192v-0.403h1.192zM39.329 24.168v0.416h-1.369v-0.416h1.369zM40.827 24.168v2.576h-0.529v-2.576h0.529zM41.619 24.168v0.416h-2.101v-0.416h2.101zM43.65 26.329v0.414h-1.371v-0.414h1.371zM42.453 24.168v2.576h-0.531v-2.576h0.531zM43.472 25.217v0.403h-1.192v-0.403h1.192zM43.649 24.168v0.416h-1.369v-0.416h1.369zM43.96 24.168h0.961c0.197 0 0.367 0.030 0.507 0.089 0.143 0.059 0.253 0.146 0.33 0.261s0.115 0.258 0.115 0.427c0 0.138-0.024 0.256-0.071 0.355s-0.113 0.181-0.195 0.245l-0.002 0.001c-0.085 0.065-0.183 0.118-0.289 0.154l-0.007 0.002-0.168 0.089h-0.835l-0.003-0.414h0.621c0.005 0 0.011 0 0.018 0 0.078 0 0.152-0.018 0.217-0.051l-0.003 0.001c0.059-0.031 0.106-0.078 0.137-0.136l0.001-0.002c0.030-0.057 0.048-0.125 0.048-0.197 0-0.003-0-0.006-0-0.009v0c0-0.003 0-0.007 0-0.011 0-0.074-0.017-0.144-0.048-0.206l0.001 0.003c-0.031-0.060-0.079-0.107-0.138-0.137l-0.002-0.001c-0.064-0.031-0.139-0.049-0.219-0.049-0.006 0-0.012 0-0.018 0l0.001-0h-0.43v2.16h-0.531v-2.576zM45.4 26.744l-0.587-1.148 0.562-0.004 0.593 1.127v0.024h-0.568zM47.621 26.070c0-0.002 0-0.004 0-0.005 0-0.042-0.008-0.083-0.022-0.121l0.001 0.002c-0.016-0.041-0.041-0.076-0.074-0.102l-0-0c-0.044-0.036-0.095-0.068-0.15-0.092l-0.004-0.002c-0.069-0.032-0.154-0.065-0.241-0.092l-0.015-0.004c-0.136-0.044-0.246-0.086-0.352-0.135l0.020 0.008c-0.106-0.048-0.196-0.103-0.28-0.167l0.003 0.002c-0.076-0.061-0.138-0.134-0.185-0.217l-0.002-0.004c-0.043-0.081-0.068-0.177-0.068-0.279 0-0.005 0-0.009 0-0.014v0.001c0-0.107 0.024-0.205 0.071-0.292 0.048-0.089 0.114-0.164 0.199-0.226 0.085-0.064 0.185-0.113 0.301-0.147s0.245-0.051 0.383-0.051c0.19 0 0.356 0.034 0.497 0.103 0.142 0.068 0.251 0.162 0.329 0.281 0.079 0.12 0.119 0.255 0.119 0.409h-0.527c0-0.002 0-0.005 0-0.008 0-0.070-0.018-0.135-0.049-0.192l0.001 0.002c-0.032-0.059-0.081-0.106-0.139-0.136l-0.002-0.001c-0.064-0.031-0.138-0.049-0.217-0.049-0.007 0-0.014 0-0.020 0l0.001-0c-0.005-0-0.012-0-0.018-0-0.076 0-0.149 0.016-0.215 0.044l0.004-0.001c-0.057 0.023-0.104 0.062-0.138 0.11l-0.001 0.001c-0.029 0.043-0.046 0.095-0.046 0.152 0 0.001 0 0.003 0 0.004v-0c0 0.043 0.011 0.083 0.032 0.119 0.027 0.039 0.060 0.072 0.098 0.098l0.001 0.001c0.043 0.031 0.097 0.060 0.161 0.087s0.137 0.054 0.221 0.080c0.14 0.042 0.263 0.091 0.37 0.143 0.103 0.050 0.191 0.109 0.27 0.18l-0.001-0.001c0.072 0.066 0.127 0.141 0.163 0.225s0.054 0.179 0.054 0.285c0 0.112-0.021 0.212-0.065 0.301s-0.107 0.163-0.189 0.225c-0.083 0.062-0.181 0.108-0.296 0.139s-0.242 0.048-0.383 0.048c-0.127 0-0.254-0.017-0.377-0.050-0.129-0.035-0.241-0.088-0.342-0.156l0.004 0.003c-0.099-0.068-0.18-0.156-0.238-0.258l-0.002-0.004c-0.060-0.106-0.091-0.232-0.091-0.377h0.533c0 0.080 0.012 0.148 0.037 0.203 0.024 0.054 0.059 0.099 0.103 0.134l0.001 0.001c0.046 0.034 0.101 0.060 0.16 0.074l0.003 0.001c0.064 0.015 0.133 0.023 0.209 0.023 0.005 0 0.012 0 0.018 0 0.075 0 0.146-0.015 0.212-0.041l-0.004 0.001c0.105-0.042 0.177-0.143 0.177-0.26 0-0.001 0-0.002-0-0.003v0z"></path>
</symbol>
<symbol id="icon-twitter" viewBox="0 0 32 32">
<path d="M32 6.078c-1.1 0.493-2.376 0.857-3.713 1.028l-0.068 0.007c1.36-0.817 2.382-2.078 2.873-3.579l0.013-0.046c-1.198 0.722-2.591 1.273-4.076 1.573l-0.084 0.014c-1.2-1.279-2.9-2.076-4.787-2.076-3.622 0-6.558 2.936-6.558 6.558 0 0.001 0 0.003 0 0.004v-0c0 0.52 0.043 1.021 0.152 1.496-5.454-0.266-10.28-2.88-13.522-6.861-0.564 0.949-0.899 2.092-0.902 3.313v0.001c0 2.272 1.171 4.286 2.914 5.451-1.091-0.030-2.107-0.325-2.994-0.823l0.033 0.017v0.072c0.003 3.165 2.236 5.807 5.213 6.44l0.043 0.008c-0.499 0.136-1.071 0.215-1.662 0.215-0.020 0-0.041-0-0.061-0l0.003 0c-0.419 0-0.843-0.024-1.242-0.112 0.85 2.598 3.261 4.509 6.13 4.57-2.215 1.746-5.046 2.8-8.123 2.8-0.004 0-0.008 0-0.012 0h0.001c-0.538 0-1.053-0.026-1.57-0.091 2.827 1.846 6.287 2.944 10.004 2.944 0.021 0 0.042-0 0.063-0h-0.003c12.072 0 18.672-10 18.672-18.669 0-0.288-0.010-0.57-0.024-0.848 1.299-0.936 2.391-2.065 3.258-3.356l0.030-0.047z"></path>
</symbol>
<symbol id="icon-sobre-activable-1" viewBox="0 0 43 32">
<path d="M38.667 0h-34.667c-2.205 0-4 1.795-4 4v24c0 2.205 1.795 4 4 4h34.667c2.205 0 4-1.795 4-4v-24c0-2.205-1.795-4-4-4zM38.667 2.667c0.181 0 0.355 0.037 0.512 0.104l-17.845 15.467-17.845-15.467c0.151-0.065 0.327-0.104 0.512-0.104h34.667zM38.667 29.333h-34.667c-0.736 0-1.333-0.597-1.333-1.333v0-22.413l17.792 15.421c0.233 0.203 0.539 0.327 0.875 0.327s0.642-0.124 0.876-0.328l-0.002 0.001 17.792-15.421v22.413c0 0.736-0.597 1.333-1.333 1.333v0z"></path>
</symbol>
<symbol id="icon-telfono-inteligente-1" viewBox="0 0 20 32">
<path d="M17 0h-14c-1.654 0-3 1.346-3 3v26c0 1.654 1.346 3 3 3h14c1.654 0 3-1.346 3-3v-26c0-1.654-1.346-3-3-3zM3 2h14c0.552 0 1 0.448 1 1v0 21h-16v-21c0-0.552 0.448-1 1-1v0zM17 30h-14c-0.552 0-1-0.448-1-1v0-3h16v3c0 0.552-0.448 1-1 1v0z"></path>
<path d="M4.708 27.478c0.18 0.163 0.293 0.399 0.293 0.66s-0.113 0.497-0.292 0.659l-0.001 0.001c-0.186 0.17-0.435 0.275-0.708 0.275s-0.522-0.104-0.709-0.275l0.001 0.001c-0.18-0.163-0.293-0.399-0.293-0.66s0.113-0.497 0.292-0.659l0.001-0.001c0.186-0.17 0.435-0.275 0.708-0.275s0.522 0.104 0.709 0.275l-0.001-0.001z"></path>
</symbol>
<symbol id="icon-antena" viewBox="0 0 72 32">
<path fill="#f5f4fa" style="fill: var(--color1, #f5f4fa)" d="M1.067 0h69.867c0.589 0 1.067 0.478 1.067 1.067v29.867c0 0.589-0.478 1.067-1.067 1.067h-69.867c-0.589 0-1.067-0.478-1.067-1.067v-29.867c0-0.589 0.478-1.067 1.067-1.067z"></path>
<path fill="#212121" style="fill: var(--color2, #212121)" d="M44.618 19.557l-4.925-4.961 0.547-2.693c0.131 0.053 0.283 0.084 0.442 0.085h0.004c0.004 0 0.010 0 0.015 0 0.696 0 1.259-0.564 1.259-1.259s-0.564-1.259-1.259-1.259c-0.696 0-1.259 0.564-1.259 1.259 0 0.151 0.027 0.296 0.076 0.431l-0.003-0.009-2.893 0.353-4.719-4.744c-0.056-0.057-0.134-0.093-0.22-0.093h-0c-0.082 0.001-0.16 0.033-0.218 0.091l-0.882 0.877c-0.056 0.056-0.091 0.134-0.091 0.22s0.035 0.164 0.091 0.22v0l0.475 0.481c-1.839 3.382-1.242 7.571 1.47 10.303 0.025 0.024 0.054 0.043 0.085 0.057-0.019 0.096-0.030 0.206-0.030 0.319v3.61h-3.733c-0.859 0.001-1.555 0.697-1.556 1.555v0.622c0 0.172 0.139 0.311 0.311 0.311h14.311c0.172 0 0.311-0.139 0.311-0.311v-0.622c-0.001-0.859-0.697-1.554-1.555-1.555h-3.733v-1.599c0.585 0.123 1.181 0.185 1.778 0.187 1.505-0.002 2.919-0.387 4.152-1.063l-0.045 0.023 0.477 0.48c0.058 0.059 0.137 0.093 0.22 0.093 0.085-0.001 0.162-0.035 0.218-0.091h-0l0.882-0.877c0.056-0.056 0.091-0.134 0.091-0.22s-0.035-0.164-0.091-0.22v0zM40.247 10.303c0.112-0.111 0.267-0.18 0.438-0.18 0.343 0 0.622 0.278 0.622 0.622s-0.278 0.622-0.621 0.622h-0.002c-0.342-0.002-0.619-0.28-0.619-0.622 0-0.172 0.070-0.328 0.183-0.441l0-0h-0.001zM39.514 12.347l-0.349 1.718-0.686-0.69 1.035-1.029zM39.161 11.821l-1.12 1.114-0.866-0.871 1.986-0.242zM40.669 23.467c0.515 0 0.933 0.418 0.933 0.933v0 0.311h-13.689v-0.311c0-0.515 0.418-0.933 0.933-0.933v0h11.822zM36.314 22.222v0.622h-3.111v-0.622h3.111zM33.202 21.6v-2.365c0-0.755 0.698-1.369 1.555-1.369s1.556 0.614 1.556 1.369v2.365h-3.111zM36.936 20.611v-1.375c0-1.098-0.977-1.991-2.178-1.991-0.010-0-0.022-0-0.034-0-0.789 0-1.482 0.412-1.875 1.033l-0.005 0.009c-1.376-1.448-2.223-3.41-2.223-5.57 0-1.35 0.331-2.623 0.915-3.742l-0.021 0.045 10.851 10.913c-1.063 0.552-2.321 0.876-3.655 0.876-0.629 0-1.242-0.072-1.829-0.208l0.054 0.011zM43.521 20.212l-12.283-12.355 0.44-0.439 4.629 4.655c0.002 0 0.003 0.004 0.006 0.006l7.65 7.695-0.441 0.439z"></path>
<path fill="#2196f3" style="fill: var(--color3, #2196f3)" d="M34.761 18.489h-0.003c-0 0-0.001 0-0.001 0-0.515 0-0.933 0.418-0.933 0.933s0.417 0.933 0.932 0.933h0.003c0 0 0.001 0 0.001 0 0.515 0 0.933-0.418 0.933-0.933s-0.417-0.933-0.932-0.933h-0zM34.978 19.643c-0.056 0.056-0.134 0.090-0.219 0.090-0.172 0-0.311-0.139-0.311-0.311 0-0.086 0.035-0.164 0.092-0.221l0-0c0.058-0.058 0.136-0.090 0.218-0.091 0.171 0.001 0.31 0.14 0.31 0.311 0 0.086-0.035 0.164-0.092 0.221l-0 0h0.003z"></path>
</symbol>
<symbol id="icon-astronauta" viewBox="0 0 72 32">
<path fill="#f5f4fa" style="fill: var(--color1, #f5f4fa)" d="M1.067 0h69.867c0.589 0 1.067 0.478 1.067 1.067v29.867c0 0.589-0.478 1.067-1.067 1.067h-69.867c-0.589 0-1.067-0.478-1.067-1.067v-29.867c0-0.589 0.478-1.067 1.067-1.067z"></path>
<path fill="#2196f3" style="fill: var(--color3, #2196f3)" d="M45.318 9.306c-0.037-0.111-0.133-0.194-0.249-0.211l-0.002-0-1.114-0.162-0.499-1.010c-0.105-0.213-0.453-0.213-0.558 0l-0.499 1.010-1.115 0.162c-0.152 0.022-0.267 0.151-0.267 0.308 0 0.088 0.036 0.167 0.094 0.223l0 0 0.807 0.786-0.19 1.11c-0.020 0.117 0.028 0.235 0.123 0.304 0.097 0.070 0.223 0.079 0.328 0.024l0.997-0.525 0.997 0.524c0.042 0.022 0.092 0.036 0.145 0.036 0.069 0 0.132-0.022 0.184-0.060l-0.001 0.001c0.096-0.069 0.144-0.187 0.123-0.304l-0.19-1.11 0.807-0.786c0.058-0.057 0.094-0.136 0.094-0.223 0-0.034-0.006-0.067-0.016-0.098l0.001 0.002zM43.882 10.080c-0.058 0.056-0.094 0.135-0.094 0.223 0 0.019 0.002 0.037 0.005 0.055l-0-0.002 0.111 0.65-0.583-0.307c-0.042-0.023-0.092-0.036-0.145-0.036s-0.103 0.013-0.147 0.037l0.002-0.001-0.583 0.307 0.111-0.65c0.003-0.016 0.005-0.034 0.005-0.053 0-0.087-0.036-0.166-0.094-0.222l-0-0-0.473-0.461 0.653-0.095c0.101-0.015 0.189-0.078 0.234-0.17l0.292-0.591 0.292 0.591c0.046 0.092 0.133 0.156 0.234 0.17l0.653 0.095-0.472 0.461zM41.911 18.638h-0.622v0.622h0.622v-0.622zM41.911 19.883h-0.622v0.622h0.622v-0.622zM42.533 19.26h-0.622v0.622h0.622v-0.622zM41.289 19.26h-0.622v0.622h0.622v-0.622zM39.733 22.060h-0.622v0.622h0.622v-0.622zM39.733 23.305h-0.622v0.622h0.622v-0.622zM40.356 22.683h-0.622v0.622h0.622v-0.622zM39.111 22.683h-0.622v0.622h0.622v-0.622zM36 20.816h-0.622v0.622h0.622v-0.622zM36 22.060h-0.622v0.622h0.622v-0.622zM36.622 21.438h-0.622v0.622h0.622v-0.622zM35.378 21.438h-0.622v0.622h0.622v-0.622zM30.089 10.238h-0.622v0.622h0.622v-0.622zM30.089 11.482h-0.622v0.622h0.622v-0.622zM30.711 10.86h-0.622v0.622h0.622v-0.622zM29.467 10.86h-0.622v0.622h0.622v-0.622z"></path>
<path fill="#212121" style="fill: var(--color2, #212121)" d="M41.084 14.926c-0.163-0.22-0.408-0.371-0.688-0.41l-0.005-0.001c-0.045-0.007-0.096-0.011-0.148-0.011-0.24 0-0.46 0.081-0.636 0.218l0.002-0.002-0.73 0.56-1.107 0.827-0.792-0.316c1.413-0.634 2.4-2.046 2.4-3.687 0-2.23-1.822-4.045-4.061-4.045s-4.061 1.814-4.061 4.045c0 0.808 0.242 1.56 0.653 2.193l-1.615-0.014c-0.005 0-0.009 0.003-0.014 0.003-0.033 0.002-0.064 0.008-0.093 0.019l0.002-0.001c-0.007 0.003-0.015 0.004-0.022 0.008-0.004 0.001-0.007 0.002-0.011 0.004l-1.886 0.931c-0 0-0.001 0-0.001 0.001l-1.104 0.531c-0.014 0.006-0.026 0.013-0.038 0.021l0.001-0.001c-0.281 0.189-0.464 0.506-0.464 0.865 0 0.173 0.042 0.336 0.117 0.48l-0.003-0.006c0.128 0.247 0.346 0.433 0.609 0.516l0.007 0.002c0.094 0.031 0.201 0.048 0.313 0.048 0.18 0 0.349-0.046 0.496-0.126l-0.005 0.003 0.81-0.43 1.321-0.682 0.791-0.005-3.956 3.937c-0.177 0.175-0.286 0.417-0.286 0.685 0 0.001 0 0.002 0 0.002v-0c0 0.001 0 0.001 0 0.002 0 0.268 0.109 0.511 0.286 0.686l0 0c0.176 0.175 0.418 0.283 0.686 0.283 0.001 0 0.002 0 0.002 0h-0c0.25 0 0.498-0.094 0.689-0.283l0.767-0.763 1.015-0.758 0.525 0.523-1.809 1.802c-0.177 0.174-0.286 0.417-0.286 0.685 0 0.001 0 0.002 0 0.003v-0c0.001 0.536 0.436 0.971 0.973 0.971 0 0 0.001 0 0.001 0h-0c0.249 0 0.499-0.094 0.689-0.283l2.618-2.609c0.004-0.004 0.009-0.005 0.013-0.009l3.013-3.301 2.025 0.288c0.015 0.002 0.029 0.003 0.044 0.003 0.038 0 0.074-0.009 0.109-0.022 0.010-0.004 0.019-0.009 0.029-0.014 0.011-0.006 0.023-0.009 0.034-0.016l1.874-1.244c0.007-0.005 0.011-0.012 0.017-0.017 0.007-0.006 0.017-0.008 0.024-0.015l0.742-0.695c0.203-0.19 0.329-0.459 0.329-0.758 0-0.233-0.077-0.449-0.207-0.622l0.002 0.003zM27.909 17.033c-0.057 0.032-0.125 0.050-0.198 0.050-0.046 0-0.090-0.007-0.131-0.021l0.003 0.001c-0.172-0.054-0.295-0.212-0.295-0.398 0-0.138 0.067-0.26 0.17-0.336l0.001-0.001 0.766-0.369 0.185 0.539 0.077 0.227-0.579 0.307zM29.949 15.966l-0.903 0.467-0.149-0.435-0.107-0.313 1.182-0.584-0.023 0.866zM38.757 12.105c0 0.536-0.128 1.041-0.349 1.493l-2.439-1.108c-0.025-0.335-0.2-0.626-0.456-0.807l-0.003-0.002 0.854-2.835c1.387 0.441 2.394 1.735 2.394 3.26zM31.881 12.105c0-1.887 1.542-3.422 3.438-3.422 0.147 0 0.292 0.013 0.435 0.031l-0.835 2.773c-0.011 0-0.022-0.003-0.033-0.003-0.602 0-1.093 0.488-1.093 1.089s0.49 1.089 1.093 1.089c0.405 0 0.755-0.223 0.944-0.551l2.253 1.024c-0.627 0.843-1.63 1.394-2.763 1.394-1.896 0-3.438-1.535-3.438-3.422zM35.355 12.571c0 0.257-0.211 0.467-0.47 0.467-0 0-0.001 0-0.001 0-0.258 0-0.468-0.209-0.469-0.467v-0c0-0.257 0.211-0.467 0.47-0.467s0.47 0.209 0.47 0.467zM28.105 21.335c-0.064 0.063-0.152 0.103-0.249 0.103s-0.185-0.039-0.249-0.102l0 0c-0.064-0.063-0.103-0.15-0.103-0.246s0.039-0.183 0.103-0.246l0-0 0.561-0.559 0.497 0.494-0.559 0.557zM29.979 23.513c-0.064 0.063-0.152 0.103-0.249 0.103s-0.185-0.039-0.249-0.102l0 0c-0.064-0.063-0.103-0.15-0.103-0.246s0.039-0.183 0.103-0.246l0-0 0.562-0.559 0.497 0.494-0.56 0.557zM32.010 21.49l-0.001 0.001-1.030 1.027-0.497-0.494 1.030-1.025c0.023-0.023 0.038-0.051 0.052-0.079 0.004-0.008 0.012-0.015 0.015-0.023 0.010-0.024 0.011-0.050 0.015-0.075 0.002-0.014 0.008-0.028 0.008-0.043 0-0.021-0.007-0.041-0.012-0.061-0.004-0.019-0.004-0.038-0.011-0.056-0.014-0.031-0.032-0.057-0.053-0.081l0 0c-0.006-0.007-0.008-0.015-0.015-0.022h-0.001l-0.001-0.001-0.937-0.933c-0.010-0.010-0.023-0.014-0.034-0.023-0.015-0.012-0.031-0.023-0.049-0.033l-0.002-0.001c-0.015-0.007-0.034-0.014-0.053-0.018l-0.002-0c-0.017-0.006-0.038-0.010-0.059-0.012l-0.001-0c-0.004-0-0.009-0-0.013-0-0.015 0-0.030 0.001-0.044 0.003l0.002-0c-0.021 0.003-0.040 0.005-0.061 0.012s-0.037 0.016-0.055 0.026c-0.012 0.006-0.025 0.009-0.035 0.017l-1.035 0.772-0.525-0.523 1.399-1.392 2.543 2.502-0.541 0.536zM35.988 17.397c-0.009-0.001-0.017 0.002-0.026 0.002-0.005-0-0.010-0-0.016-0-0.037 0-0.072 0.006-0.105 0.018l0.002-0.001c-0.022 0.008-0.040 0.017-0.057 0.028l0.001-0.001c-0.018 0.011-0.033 0.022-0.049 0.036-0.007 0.006-0.017 0.010-0.023 0.017l-2.741 3.002-2.525-2.483 1.653-1.644c0.056-0.056 0.091-0.134 0.091-0.22 0-0.172-0.139-0.311-0.311-0.311-0.001 0-0.001 0-0.002 0h0l-1.294 0.007 0.016-0.938 1.811 0.015c0.737 0.756 1.766 1.226 2.904 1.226 0.001 0 0.001 0 0.002 0h-0c0.255 0 0.504-0.027 0.746-0.071 0.023 0.019 0.046 0.037 0.075 0.049l1.406 0.56 0.089 0.442 0.104 0.517-1.752-0.249zM38.345 17.501l-0.182-0.909 0.844-0.63 0.552 0.733-1.213 0.806zM40.535 15.849l-0.489 0.458-0.543-0.721 0.485-0.372c0.091-0.070 0.205-0.098 0.317-0.083 0.113 0.016 0.212 0.075 0.28 0.166 0.051 0.068 0.082 0.155 0.082 0.248 0 0.12-0.051 0.228-0.132 0.304l-0 0z"></path>
<path fill="#212121" style="fill: var(--color2, #212121)" d="M34.601 17.484l-1.25-1.245c-0.056-0.056-0.134-0.091-0.219-0.091s-0.163 0.035-0.219 0.091v0l-1.25 1.245c-0.058 0.059-0.091 0.138-0.091 0.221s0.033 0.162 0.091 0.221l1.25 1.245c0.056 0.056 0.134 0.091 0.219 0.091s0.163-0.035 0.219-0.091v0l1.25-1.245c0.057-0.056 0.092-0.134 0.092-0.221s-0.035-0.164-0.092-0.221v0zM33.132 18.51l-0.809-0.805 0.809-0.806 0.809 0.805-0.809 0.805zM36.679 9.625l-0.15 0.604c0.041 0.010 1.014 0.263 1.014 1.253h0.622c0-1.177-0.972-1.73-1.486-1.858zM38.165 12.105h-0.622v0.622h0.622v-0.622z"></path>
</symbol>
<symbol id="icon-diagrama" viewBox="0 0 72 32">
<path fill="#f5f4fa" style="fill: var(--color1, #f5f4fa)" d="M1.067 0h69.867c0.589 0 1.067 0.478 1.067 1.067v29.867c0 0.589-0.478 1.067-1.067 1.067h-69.867c-0.589 0-1.067-0.478-1.067-1.067v-29.867c0-0.589 0.478-1.067 1.067-1.067z"></path>
<path fill="#2196f3" style="fill: var(--color3, #2196f3)" d="M35.373 15.396h0.622v2.799h-0.622v-2.799zM37.861 16.64h0.622v1.555h-0.622v-1.555zM32.886 17.573h0.622v0.622h-0.622v-0.622zM31.020 17.262h0.622v0.933h-0.622v-0.933z"></path>
<path fill="#212121" style="fill: var(--color2, #212121)" d="M27.599 23.17h14.926c0.515 0 0.933-0.418 0.933-0.933v-1.244c0-0.515-0.418-0.933-0.933-0.933v0h-0.311v-7.755l1.766-1.673c0.121 0.061 0.264 0.097 0.415 0.097 0.518 0 0.938-0.42 0.938-0.938s-0.42-0.938-0.938-0.938c-0.518 0-0.938 0.42-0.938 0.938 0 0.144 0.032 0.28 0.090 0.402l-0.002-0.006-1.331 1.262v-0.717c-0-0.515-0.418-0.933-0.933-0.933h-12.438c-0.515 0-0.933 0.418-0.933 0.933v0 9.329h-0.311c-0.515 0-0.933 0.418-0.933 0.933v1.244c0 0.515 0.418 0.933 0.933 0.933v0zM44.391 9.488c0.172 0 0.311 0.139 0.311 0.311s-0.139 0.311-0.311 0.311v0c-0.172 0-0.311-0.139-0.311-0.311s0.139-0.311 0.311-0.311v0zM28.532 10.732c0-0.172 0.139-0.311 0.311-0.311h12.438c0.172 0 0.311 0.139 0.311 0.311v1.306l-0.622 0.591v-1.275c0-0.172-0.139-0.311-0.311-0.311h-11.194c-0.172 0-0.311 0.139-0.311 0.311v7.774c0 0.172 0.139 0.311 0.311 0.311h11.194c0.171 0 0.311-0.139 0.311-0.311v-5.643l0.622-0.589v7.165h-13.060v-9.328zM31.331 14.774c-0.001 0-0.002 0-0.003 0-0.515 0-0.933 0.418-0.933 0.933s0.418 0.933 0.933 0.933c0.252 0 0.481-0.1 0.649-0.263l-0 0 1.081 0.542c0.040 0.021 0.088 0.033 0.139 0.033 0.092 0 0.175-0.040 0.232-0.104l0-0 2.298-2.585 2.259 1.693c0.121 0.091 0.29 0.081 0.4-0.023l1.963-1.859v4.743h-10.572v-7.152h10.572v1.552l-2.2 2.083-2.278-1.707c-0.051-0.039-0.116-0.062-0.187-0.062-0.092 0-0.175 0.040-0.232 0.104l-0 0-2.329 2.621-0.871-0.435c0.006-0.033 0.010-0.072 0.012-0.111l0-0.002c0-0.515-0.418-0.933-0.933-0.933v0zM31.642 15.707c0 0.172-0.139 0.311-0.311 0.311s-0.311-0.139-0.311-0.311v0c0-0.172 0.139-0.311 0.311-0.311s0.311 0.139 0.311 0.311v0zM33.507 20.682h3.11v0.311c0 0.172-0.139 0.311-0.311 0.311h-2.488c-0.172 0-0.311-0.139-0.311-0.311v0-0.311zM27.289 20.993c0-0.172 0.139-0.311 0.311-0.311h5.286v0.311c0 0.515 0.418 0.933 0.933 0.933h2.488c0.515 0 0.933-0.418 0.933-0.933v0-0.311h5.286c0.172 0 0.311 0.139 0.311 0.311v1.244c0 0.172-0.139 0.311-0.311 0.311h-14.926c-0.172 0-0.311-0.139-0.311-0.311v0-1.244z"></path>
</symbol>
<symbol id="icon-reloj" viewBox="0 0 72 32">
<path fill="#f5f4fa" style="fill: var(--color1, #f5f4fa)" d="M1.067 0h69.867c0.589 0 1.067 0.478 1.067 1.067v29.867c0 0.589-0.478 1.067-1.067 1.067h-69.867c-0.589 0-1.067-0.478-1.067-1.067v-29.867c0-0.589 0.478-1.067 1.067-1.067z"></path>
<path fill="#212121" style="fill: var(--color2, #212121)" d="M44.923 15.592c-0.001-4.931-3.999-8.927-8.93-8.926s-8.927 3.999-8.926 8.93c0.001 3.96 2.58 7.317 6.149 8.485l0.063 0.018c0.035 0.011 0.072 0.017 0.109 0.017 0.070 0 0.139-0.019 0.2-0.055 0.079-0.047 0.138-0.121 0.165-0.208l2.255-7.146c0.614-0.003 1.11-0.501 1.11-1.115 0-0.002 0-0.004-0-0.006v0c-0.003-0.614-0.501-1.11-1.116-1.11-0.002 0-0.004 0-0.006 0h0c-0.174 0.001-0.339 0.042-0.485 0.115l0.006-0.003-2.978-2.979c-0.067-0.064-0.158-0.104-0.258-0.104-0.205 0-0.372 0.167-0.372 0.372 0 0.1 0.040 0.191 0.104 0.258l-0-0 2.977 2.98c-0.070 0.14-0.112 0.306-0.112 0.481 0 0.351 0.165 0.663 0.422 0.864l0.002 0.002-2.148 6.809c-4.245-1.564-6.419-6.273-4.855-10.519s6.273-6.419 10.519-4.855c4.245 1.564 6.419 6.273 4.855 10.518-0.784 2.089-2.335 3.737-4.301 4.631l-0.051 0.021-0.232-1.093c-0.037-0.17-0.186-0.295-0.364-0.295-0.095 0-0.182 0.036-0.248 0.095l0-0-2.238 1.998c-0.077 0.068-0.125 0.168-0.125 0.278 0 0.165 0.108 0.305 0.257 0.354l0.003 0.001 2.858 0.912c0.034 0.011 0.073 0.018 0.114 0.018 0.205 0 0.372-0.166 0.372-0.372 0-0.028-0.003-0.055-0.009-0.080l0 0.002-0.228-1.073c3.224-1.385 5.442-4.533 5.442-8.2 0-0.007 0-0.013-0-0.020v0.001zM35.995 15.221c0.205 0 0.372 0.167 0.372 0.372s-0.167 0.372-0.372 0.372v0c-0.205 0-0.372-0.167-0.372-0.372s0.167-0.372 0.372-0.372v0zM37.221 23.891l1.274-1.137 0.352 1.657-1.626-0.52z"></path>
<path fill="#2196f3" style="fill: var(--color3, #2196f3)" d="M35.623 8.525v0.744c0 0.205 0.167 0.372 0.372 0.372s0.372-0.167 0.372-0.372v0-0.744c0-0.205-0.167-0.372-0.372-0.372s-0.372 0.167-0.372 0.372v0zM28.928 15.221c-0.205 0-0.372 0.167-0.372 0.372s0.167 0.372 0.372 0.372h0.744c0.205 0 0.372-0.167 0.372-0.372s-0.167-0.372-0.372-0.372h-0.744zM43.063 15.965c0.205 0 0.372-0.167 0.372-0.372s-0.167-0.372-0.372-0.372v0h-0.744c-0.205 0-0.372 0.167-0.372 0.372s0.167 0.372 0.372 0.372h0.744z"></path>
</symbol>
<symbol id="icon-Imagen-1" viewBox="0 0 85 32">
<path d="M0 0h85.333v32h-85.333z"></path>
</symbol>
<symbol id="icon-etiqueta1" viewBox="0 0 169 32">
<path fill="#2f303a" style="fill: var(--color1, #2f303a)" opacity="0.8" d="M0 0h169.143v32h-169.143z"></path>
<path fill="#fff" style="fill: var(--color2, #fff)" d="M39.178 17.349h-1.643l-0.313 0.937h-0.997l1.693-4.55h0.869l1.704 4.55h-0.997l-0.315-0.937zM37.787 16.589h1.137l-0.571-1.703-0.566 1.703zM42.045 16.683v1.603h-0.938v-4.55h1.775c0.342 0 0.641 0.063 0.9 0.187 0.261 0.125 0.461 0.303 0.6 0.534 0.139 0.229 0.209 0.491 0.209 0.784 0 0.446-0.153 0.798-0.459 1.056-0.304 0.256-0.726 0.384-1.265 0.384h-0.822zM42.045 15.923h0.837c0.248 0 0.436-0.059 0.566-0.175 0.131-0.117 0.197-0.283 0.197-0.5 0-0.223-0.065-0.403-0.197-0.541s-0.312-0.208-0.544-0.213h-0.859v1.428zM46.368 17.532h1.99v0.753h-2.928v-4.55h0.938v3.797zM50.088 18.286h-0.938v-4.55h0.938v4.55zM54.724 16.77c-0.035 0.489-0.217 0.875-0.544 1.156-0.325 0.281-0.754 0.422-1.288 0.422-0.583 0-1.042-0.196-1.378-0.587-0.333-0.394-0.5-0.933-0.5-1.619v-0.278c0-0.438 0.077-0.823 0.231-1.157s0.374-0.588 0.659-0.765c0.288-0.179 0.621-0.269 1-0.269 0.525 0 0.948 0.141 1.269 0.422s0.507 0.676 0.556 1.184h-0.938c-0.023-0.293-0.105-0.506-0.247-0.637-0.139-0.133-0.353-0.2-0.64-0.2-0.313 0-0.547 0.112-0.703 0.337-0.154 0.223-0.234 0.57-0.238 1.040v0.344c0 0.492 0.074 0.851 0.222 1.078 0.15 0.227 0.385 0.341 0.706 0.341 0.29 0 0.506-0.066 0.647-0.197 0.144-0.134 0.226-0.339 0.247-0.616h0.937zM58.1 17.348h-1.644l-0.312 0.938h-0.997l1.694-4.55h0.869l1.703 4.55h-0.997l-0.316-0.937zM56.709 16.589h1.137l-0.572-1.704-0.566 1.703zM63.533 16.77c-0.035 0.489-0.217 0.875-0.544 1.156-0.325 0.281-0.754 0.422-1.288 0.422-0.583 0-1.043-0.196-1.378-0.587-0.334-0.394-0.5-0.933-0.5-1.619v-0.278c0-0.438 0.077-0.823 0.231-1.157s0.374-0.588 0.659-0.765c0.288-0.179 0.621-0.269 1-0.269 0.525 0 0.948 0.141 1.269 0.422s0.506 0.676 0.556 1.184h-0.938c-0.023-0.293-0.105-0.506-0.247-0.637-0.139-0.133-0.353-0.2-0.641-0.2-0.312 0-0.547 0.112-0.703 0.337-0.154 0.223-0.233 0.57-0.237 1.040v0.344c0 0.492 0.074 0.851 0.222 1.078 0.15 0.227 0.385 0.341 0.706 0.341 0.29 0 0.505-0.066 0.647-0.197 0.144-0.134 0.226-0.339 0.247-0.616h0.938zM65.337 18.286h-0.937v-4.55h0.937v4.55zM70.138 16.114c0 0.448-0.079 0.841-0.237 1.178s-0.385 0.598-0.681 0.782c-0.294 0.183-0.631 0.274-1.013 0.274-0.377 0-0.714-0.090-1.009-0.272s-0.525-0.44-0.688-0.775c-0.163-0.338-0.245-0.725-0.247-1.163v-0.225c0-0.448 0.080-0.842 0.24-1.181 0.163-0.342 0.391-0.603 0.684-0.784 0.296-0.183 0.634-0.275 1.013-0.275s0.716 0.091 1.009 0.275c0.296 0.181 0.524 0.443 0.684 0.784 0.163 0.34 0.244 0.732 0.244 1.178v0.203zM69.189 15.908c0-0.477-0.085-0.84-0.256-1.088s-0.415-0.372-0.731-0.372c-0.314 0-0.557 0.123-0.728 0.369-0.171 0.244-0.257 0.602-0.259 1.075v0.222c0 0.464 0.085 0.825 0.256 1.081s0.417 0.384 0.738 0.384c0.314 0 0.556-0.123 0.725-0.369 0.169-0.248 0.254-0.608 0.256-1.081v-0.222zM74.712 18.286h-0.937l-1.825-2.994v2.994h-0.937v-4.55h0.937l1.828 3v-3h0.934v4.55zM78.46 16.314h-1.8v1.219h2.112v0.753h-3.050v-4.55h3.044v0.759h-2.106v1.084h1.8v0.735zM81.874 17.092c0-0.177-0.062-0.313-0.187-0.406-0.125-0.096-0.35-0.196-0.675-0.3-0.325-0.107-0.582-0.21-0.772-0.313-0.517-0.279-0.775-0.655-0.775-1.128-0-0.005-0-0.010-0-0.016 0-0.24 0.077-0.463 0.208-0.644l-0.002 0.003c0.139-0.194 0.339-0.345 0.597-0.453 0.26-0.108 0.552-0.163 0.875-0.163 0.325 0 0.614 0.059 0.869 0.178 0.254 0.117 0.451 0.282 0.591 0.497 0.142 0.215 0.213 0.458 0.213 0.731h-0.938c0-0.208-0.065-0.37-0.197-0.485-0.131-0.117-0.316-0.175-0.553-0.175-0.23 0-0.407 0.049-0.534 0.147-0.116 0.083-0.191 0.218-0.191 0.37 0 0.004 0 0.008 0 0.012v-0.001c0 0.148 0.074 0.272 0.222 0.372 0.15 0.1 0.37 0.194 0.66 0.281 0.533 0.16 0.922 0.359 1.165 0.597s0.366 0.533 0.366 0.887c0 0.394-0.149 0.703-0.447 0.928-0.298 0.223-0.699 0.335-1.203 0.335-0.35 0-0.669-0.064-0.956-0.191-0.288-0.129-0.507-0.305-0.659-0.528-0.15-0.223-0.225-0.481-0.225-0.775h0.941c0 0.502 0.3 0.753 0.9 0.753 0.223 0 0.397-0.045 0.522-0.134 0.125-0.091 0.187-0.219 0.187-0.381zM85.43 18.286v-4.55h1.4c0.4 0 0.757 0.091 1.072 0.272 0.317 0.181 0.57 0.443 0.736 0.758l0.005 0.010c0.177 0.331 0.266 0.709 0.266 1.131v0.209c0 0.423-0.087 0.799-0.262 1.128-0.169 0.323-0.42 0.584-0.725 0.76l-0.009 0.005c-0.317 0.181-0.674 0.273-1.072 0.275h-1.409zM86.368 14.495v3.038h0.453c0.367 0 0.647-0.12 0.841-0.36s0.293-0.582 0.297-1.028v-0.24c0-0.463-0.096-0.812-0.288-1.050-0.192-0.24-0.472-0.359-0.841-0.359h-0.462zM92.522 16.314h-1.8v1.219h2.112v0.753h-3.050v-4.55h3.044v0.759h-2.106v1.084h1.8v0.735zM98.1 16.314h-1.8v1.219h2.112v0.753h-3.050v-4.55h3.044v0.759h-2.106v1.084h1.8v0.735zM101.514 17.092c0-0.177-0.063-0.313-0.187-0.406-0.125-0.096-0.35-0.196-0.675-0.3-0.325-0.107-0.582-0.21-0.772-0.313-0.517-0.279-0.775-0.655-0.775-1.128-0-0.004-0-0.010-0-0.015 0-0.241 0.078-0.463 0.209-0.644l-0.002 0.003c0.139-0.194 0.338-0.345 0.597-0.453 0.261-0.108 0.552-0.163 0.875-0.163 0.325 0 0.615 0.059 0.869 0.178 0.254 0.117 0.451 0.282 0.591 0.497 0.142 0.215 0.213 0.458 0.213 0.731h-0.938c0-0.208-0.066-0.37-0.197-0.485-0.131-0.117-0.315-0.175-0.553-0.175-0.229 0-0.407 0.049-0.534 0.147-0.116 0.083-0.191 0.218-0.191 0.37 0 0.004 0 0.008 0 0.012v-0.001c0 0.148 0.074 0.272 0.222 0.372 0.15 0.1 0.369 0.194 0.659 0.281 0.534 0.16 0.922 0.359 1.166 0.597s0.366 0.533 0.366 0.887c0 0.394-0.149 0.703-0.447 0.928-0.298 0.223-0.699 0.335-1.203 0.335-0.35 0-0.669-0.064-0.956-0.191-0.288-0.129-0.507-0.305-0.659-0.528-0.15-0.223-0.225-0.481-0.225-0.775h0.94c0 0.502 0.3 0.753 0.9 0.753 0.223 0 0.397-0.045 0.522-0.134 0.125-0.091 0.187-0.219 0.187-0.381zM106.856 16.77c-0.036 0.489-0.217 0.875-0.544 1.156-0.325 0.281-0.754 0.422-1.287 0.422-0.583 0-1.043-0.196-1.378-0.587-0.333-0.394-0.5-0.933-0.5-1.619v-0.278c0-0.438 0.077-0.823 0.231-1.157s0.374-0.588 0.66-0.765c0.287-0.179 0.621-0.269 1-0.269 0.525 0 0.948 0.141 1.269 0.422s0.507 0.676 0.556 1.184h-0.938c-0.023-0.293-0.105-0.506-0.247-0.637-0.139-0.133-0.353-0.2-0.64-0.2-0.313 0-0.547 0.112-0.703 0.337-0.154 0.223-0.233 0.57-0.238 1.040v0.344c0 0.492 0.074 0.851 0.222 1.078 0.15 0.227 0.385 0.341 0.706 0.341 0.289 0 0.505-0.066 0.647-0.197 0.144-0.134 0.226-0.339 0.247-0.616h0.938zM109.348 16.62h-0.747v1.666h-0.938v-4.55h1.691c0.538 0 0.952 0.12 1.244 0.359s0.438 0.578 0.438 1.016c0 0.31-0.068 0.57-0.203 0.778-0.133 0.206-0.336 0.371-0.609 0.494l0.984 1.859v0.044h-1.006l-0.853-1.666zM108.601 15.861h0.756c0.235 0 0.418-0.059 0.547-0.178 0.129-0.121 0.193-0.287 0.193-0.497 0-0.215-0.061-0.384-0.184-0.506-0.121-0.123-0.307-0.184-0.56-0.184h-0.753v1.366zM112.939 18.286h-0.938v-4.55h0.938v4.55zM117.335 14.495h-1.394v3.791h-0.938v-3.791h-1.375v-0.759h3.707v0.759zM121.714 16.114c0 0.448-0.079 0.841-0.238 1.178s-0.385 0.598-0.681 0.782c-0.294 0.183-0.631 0.274-1.013 0.274-0.377 0-0.714-0.090-1.009-0.272s-0.525-0.44-0.688-0.775c-0.162-0.338-0.245-0.725-0.247-1.163v-0.225c0-0.448 0.080-0.842 0.241-1.181 0.162-0.342 0.39-0.603 0.684-0.784 0.296-0.183 0.633-0.275 1.012-0.275s0.716 0.091 1.009 0.275c0.296 0.181 0.524 0.443 0.685 0.784 0.162 0.34 0.244 0.732 0.244 1.178v0.203zM120.764 15.908c0-0.477-0.085-0.84-0.256-1.088s-0.415-0.372-0.731-0.372c-0.314 0-0.557 0.123-0.728 0.369-0.171 0.244-0.257 0.602-0.26 1.075v0.222c0 0.464 0.085 0.825 0.256 1.081s0.416 0.384 0.737 0.384c0.314 0 0.556-0.123 0.725-0.369 0.169-0.248 0.254-0.608 0.256-1.081v-0.222zM124.272 16.62h-0.747v1.666h-0.938v-4.55h1.691c0.538 0 0.952 0.12 1.244 0.359s0.438 0.578 0.438 1.016c0 0.31-0.068 0.57-0.203 0.778-0.133 0.206-0.336 0.371-0.609 0.494l0.984 1.859v0.044h-1.006l-0.853-1.666zM123.525 15.861h0.756c0.235 0 0.418-0.059 0.547-0.178 0.129-0.121 0.194-0.287 0.194-0.497 0-0.215-0.061-0.384-0.184-0.506-0.121-0.123-0.307-0.184-0.56-0.184h-0.753v1.366zM127.864 18.286h-0.938v-4.55h0.938v4.55zM132.665 16.114c0 0.448-0.079 0.841-0.237 1.178s-0.386 0.598-0.682 0.782c-0.293 0.183-0.631 0.274-1.013 0.274-0.377 0-0.713-0.090-1.009-0.272s-0.525-0.44-0.687-0.775c-0.163-0.338-0.245-0.725-0.247-1.163v-0.225c0-0.448 0.080-0.842 0.24-1.181 0.162-0.342 0.39-0.603 0.684-0.784 0.296-0.183 0.633-0.275 1.013-0.275s0.715 0.091 1.009 0.275c0.296 0.181 0.524 0.443 0.684 0.784 0.162 0.34 0.244 0.732 0.244 1.178v0.203zM131.715 15.908c0-0.477-0.085-0.84-0.256-1.088s-0.414-0.372-0.731-0.372c-0.315 0-0.557 0.123-0.728 0.369-0.171 0.244-0.257 0.602-0.259 1.075v0.222c0 0.464 0.085 0.825 0.256 1.081s0.417 0.384 0.737 0.384c0.315 0 0.556-0.123 0.725-0.369 0.169-0.248 0.254-0.608 0.256-1.081v-0.222z"></path>
</symbol>
<symbol id="icon-etiqueta2" viewBox="0 0 169 32">
<path fill="#2f303a" style="fill: var(--color1, #2f303a)" opacity="0.8" d="M0 0h169.143v32h-169.143z"></path>
<path fill="#fff" style="fill: var(--color2, #fff)" d="M49.279 17.349h-1.644l-0.312 0.937h-0.997l1.694-4.55h0.869l1.703 4.55h-0.997l-0.316-0.937zM47.888 16.589h1.137l-0.572-1.703-0.566 1.703zM52.146 16.683v1.603h-0.938v-4.55h1.775c0.342 0 0.641 0.063 0.9 0.187 0.252 0.118 0.457 0.301 0.597 0.528l0.003 0.006c0.139 0.229 0.209 0.491 0.209 0.784 0 0.446-0.153 0.798-0.459 1.056-0.304 0.256-0.726 0.384-1.265 0.384h-0.822zM52.146 15.923h0.837c0.248 0 0.436-0.059 0.566-0.175 0.131-0.117 0.197-0.283 0.197-0.5 0-0.223-0.066-0.403-0.197-0.541s-0.313-0.208-0.544-0.213h-0.859v1.428zM56.469 17.532h1.99v0.753h-2.928v-4.55h0.938v3.797zM60.19 18.286h-0.938v-4.55h0.938v4.55zM64.825 16.77c-0.035 0.489-0.217 0.875-0.544 1.156-0.325 0.281-0.754 0.422-1.288 0.422-0.583 0-1.043-0.196-1.378-0.587-0.333-0.394-0.5-0.933-0.5-1.619v-0.278c0-0.438 0.077-0.823 0.231-1.157s0.374-0.588 0.659-0.765c0.288-0.179 0.621-0.269 1-0.269 0.525 0 0.948 0.141 1.269 0.422s0.507 0.676 0.556 1.184h-0.938c-0.023-0.293-0.105-0.506-0.247-0.637-0.139-0.133-0.353-0.2-0.64-0.2-0.313 0-0.547 0.112-0.703 0.337-0.154 0.223-0.234 0.57-0.238 1.040v0.344c0 0.492 0.074 0.851 0.222 1.078 0.15 0.227 0.386 0.341 0.706 0.341 0.29 0 0.506-0.066 0.647-0.197 0.144-0.134 0.226-0.339 0.247-0.616h0.938zM68.202 17.348h-1.644l-0.312 0.938h-0.997l1.694-4.55h0.869l1.703 4.55h-0.997l-0.315-0.937zM66.811 16.589h1.137l-0.572-1.704-0.566 1.703zM73.634 16.77c-0.036 0.489-0.217 0.875-0.544 1.156-0.325 0.281-0.754 0.422-1.287 0.422-0.583 0-1.043-0.196-1.378-0.587-0.333-0.394-0.5-0.933-0.5-1.619v-0.278c0-0.438 0.077-0.823 0.231-1.157s0.374-0.588 0.659-0.765c0.288-0.179 0.621-0.269 1-0.269 0.525 0 0.948 0.141 1.269 0.422s0.506 0.676 0.556 1.184h-0.938c-0.023-0.293-0.105-0.506-0.247-0.637-0.14-0.133-0.353-0.2-0.641-0.2-0.312 0-0.547 0.112-0.703 0.337-0.154 0.223-0.233 0.57-0.237 1.040v0.344c0 0.492 0.074 0.851 0.222 1.078 0.15 0.227 0.385 0.341 0.706 0.341 0.29 0 0.505-0.066 0.647-0.197 0.144-0.134 0.226-0.339 0.247-0.616h0.938zM75.439 18.286h-0.938v-4.55h0.938v4.55zM80.24 16.114c0 0.448-0.079 0.841-0.237 1.178s-0.385 0.598-0.681 0.782c-0.294 0.183-0.631 0.274-1.013 0.274-0.377 0-0.714-0.090-1.009-0.272s-0.525-0.44-0.688-0.775c-0.163-0.338-0.245-0.725-0.247-1.163v-0.225c0-0.448 0.080-0.842 0.24-1.181 0.163-0.342 0.391-0.603 0.684-0.784 0.296-0.183 0.634-0.275 1.013-0.275s0.715 0.091 1.009 0.275c0.296 0.181 0.524 0.443 0.684 0.784 0.163 0.34 0.244 0.732 0.244 1.178v0.203zM79.29 15.908c0-0.477-0.085-0.84-0.256-1.088s-0.415-0.372-0.731-0.372c-0.314 0-0.557 0.123-0.728 0.369-0.171 0.244-0.257 0.602-0.259 1.075v0.222c0 0.464 0.085 0.825 0.256 1.081s0.417 0.384 0.738 0.384c0.314 0 0.556-0.123 0.725-0.369 0.169-0.248 0.254-0.608 0.256-1.081v-0.222zM84.813 18.286h-0.938l-1.825-2.994v2.994h-0.937v-4.55h0.937l1.828 3v-3h0.934v4.55zM88.562 16.314h-1.8v1.219h2.112v0.753h-3.050v-4.55h3.044v0.759h-2.106v1.084h1.8v0.735zM91.975 17.092c0-0.177-0.062-0.313-0.187-0.406-0.125-0.096-0.35-0.196-0.675-0.3-0.325-0.107-0.582-0.21-0.772-0.313-0.517-0.279-0.775-0.655-0.775-1.128-0-0.005-0-0.010-0-0.016 0-0.24 0.077-0.463 0.208-0.644l-0.002 0.003c0.139-0.194 0.339-0.345 0.597-0.453 0.26-0.108 0.552-0.163 0.875-0.163 0.325 0 0.614 0.059 0.869 0.178 0.254 0.117 0.451 0.282 0.591 0.497 0.142 0.215 0.213 0.458 0.213 0.731h-0.938c0-0.208-0.065-0.37-0.197-0.485-0.132-0.117-0.316-0.175-0.553-0.175-0.23 0-0.407 0.049-0.534 0.147-0.116 0.083-0.191 0.218-0.191 0.37 0 0.004 0 0.008 0 0.012v-0.001c0 0.148 0.074 0.272 0.222 0.372 0.15 0.1 0.37 0.194 0.659 0.281 0.534 0.16 0.922 0.359 1.166 0.597s0.366 0.533 0.366 0.887c0 0.394-0.149 0.703-0.447 0.928-0.298 0.223-0.698 0.335-1.203 0.335-0.35 0-0.669-0.064-0.956-0.191-0.288-0.129-0.507-0.305-0.66-0.528-0.15-0.223-0.225-0.481-0.225-0.775h0.941c0 0.502 0.3 0.753 0.9 0.753 0.223 0 0.397-0.045 0.522-0.134 0.125-0.091 0.187-0.219 0.187-0.381zM96.757 13.736l1.168 3.3 1.162-3.301h1.232v4.55h-0.941v-1.243l0.094-2.147-1.228 3.391h-0.644l-1.225-3.387 0.094 2.144v1.243h-0.938v-4.55h1.225zM105.067 16.114c0 0.448-0.079 0.841-0.237 1.178s-0.385 0.598-0.681 0.782c-0.294 0.183-0.631 0.274-1.013 0.274-0.377 0-0.714-0.090-1.009-0.272s-0.525-0.44-0.688-0.775c-0.163-0.338-0.245-0.725-0.247-1.163v-0.225c0-0.448 0.080-0.842 0.24-1.181 0.163-0.342 0.391-0.603 0.684-0.784 0.296-0.183 0.634-0.275 1.013-0.275s0.715 0.091 1.009 0.275c0.296 0.181 0.524 0.443 0.684 0.784 0.163 0.34 0.244 0.732 0.244 1.178v0.203zM104.117 15.908c0-0.477-0.085-0.84-0.256-1.088s-0.415-0.372-0.731-0.372c-0.314 0-0.557 0.123-0.728 0.369-0.171 0.244-0.257 0.602-0.259 1.075v0.222c0 0.464 0.085 0.825 0.256 1.081s0.417 0.384 0.738 0.384c0.314 0 0.556-0.123 0.725-0.369 0.169-0.248 0.254-0.608 0.256-1.081v-0.222zM103.311 12.517h0.984l-0.866 0.969h-0.734l0.616-0.969zM107.553 17.157l1.031-3.422h1.044l-1.584 4.55h-0.978l-1.579-4.55h1.041l1.025 3.422zM111.248 18.286h-0.938v-4.55h0.938v4.55zM113.249 17.532h1.99v0.753h-2.928v-4.55h0.938v3.797zM118.71 16.314h-1.8v1.219h2.112v0.753h-3.050v-4.55h3.044v0.759h-2.106v1.084h1.8v0.735zM122.124 17.092c0-0.177-0.062-0.313-0.187-0.406-0.125-0.096-0.35-0.196-0.675-0.3-0.325-0.107-0.582-0.21-0.772-0.313-0.517-0.279-0.775-0.655-0.775-1.128-0-0.005-0-0.010-0-0.016 0-0.24 0.077-0.463 0.208-0.644l-0.002 0.003c0.139-0.194 0.338-0.345 0.597-0.453 0.26-0.108 0.552-0.163 0.875-0.163 0.325 0 0.614 0.059 0.869 0.178 0.254 0.117 0.451 0.282 0.591 0.497 0.142 0.215 0.213 0.458 0.213 0.731h-0.938c0-0.208-0.065-0.37-0.197-0.485-0.131-0.117-0.315-0.175-0.553-0.175-0.229 0-0.407 0.049-0.534 0.147-0.116 0.083-0.191 0.218-0.191 0.37 0 0.004 0 0.008 0 0.012v-0.001c0 0.148 0.074 0.272 0.222 0.372 0.15 0.1 0.37 0.194 0.659 0.281 0.534 0.16 0.922 0.359 1.166 0.597s0.366 0.533 0.366 0.887c0 0.394-0.149 0.703-0.447 0.928-0.298 0.223-0.699 0.335-1.203 0.335-0.35 0-0.668-0.064-0.956-0.191-0.288-0.129-0.507-0.305-0.66-0.528-0.15-0.223-0.225-0.481-0.225-0.775h0.941c0 0.502 0.3 0.753 0.9 0.753 0.223 0 0.397-0.045 0.522-0.134 0.125-0.091 0.187-0.219 0.187-0.381z"></path>
</symbol>
<symbol id="icon-etiqueta3" viewBox="0 0 169 32">
<path fill="#2f303a" style="fill: var(--color1, #2f303a)" opacity="0.8" d="M0 0h169.143v32h-169.143z"></path>
<path fill="#fff" style="fill: var(--color2, #fff)" d="M49.557 17.095c0-0.003 0-0.006 0-0.009 0-0.075-0.014-0.148-0.039-0.214l0.001 0.004c-0.027-0.073-0.072-0.135-0.13-0.181l-0.001-0.001c-0.078-0.064-0.168-0.12-0.264-0.163l-0.007-0.003c-0.121-0.056-0.272-0.113-0.426-0.161l-0.027-0.007c-0.206-0.067-0.402-0.142-0.587-0.225s-0.346-0.181-0.493-0.295l0.005 0.004c-0.134-0.107-0.245-0.237-0.328-0.384l-0.003-0.007c-0.079-0.148-0.119-0.32-0.119-0.516 0-0.19 0.042-0.362 0.125-0.516 0.083-0.156 0.2-0.29 0.35-0.4 0.151-0.112 0.328-0.201 0.519-0.257l0.012-0.003c0.196-0.058 0.421-0.091 0.654-0.091 0.009 0 0.017 0 0.026 0h-0.001c0.336 0 0.628 0.060 0.878 0.181s0.444 0.286 0.581 0.497c0.14 0.21 0.209 0.451 0.209 0.722h-0.931c0-0.133-0.028-0.25-0.084-0.35-0.057-0.104-0.143-0.187-0.247-0.239l-0.003-0.002c-0.111-0.059-0.25-0.088-0.419-0.088-0.163 0-0.298 0.025-0.406 0.075-0.101 0.042-0.184 0.11-0.242 0.195l-0.001 0.002c-0.051 0.076-0.081 0.169-0.081 0.269 0 0.002 0 0.004 0 0.006v-0c0 0.078 0.019 0.147 0.056 0.21 0.040 0.062 0.098 0.121 0.175 0.175s0.172 0.105 0.284 0.153 0.243 0.095 0.391 0.141c0.254 0.075 0.47 0.161 0.677 0.264l-0.024-0.011c0.182 0.088 0.338 0.193 0.477 0.317l-0.002-0.002c0.127 0.117 0.223 0.249 0.288 0.397s0.097 0.315 0.097 0.503c0 0.198-0.038 0.375-0.116 0.532-0.080 0.16-0.193 0.293-0.331 0.395l-0.003 0.002c-0.146 0.108-0.32 0.191-0.522 0.247-0.195 0.054-0.418 0.085-0.649 0.085-0.010 0-0.021-0-0.031-0h0.002c-0.225 0-0.447-0.029-0.666-0.088-0.227-0.062-0.426-0.155-0.604-0.276l0.007 0.005c-0.175-0.12-0.318-0.275-0.421-0.456l-0.004-0.007c-0.106-0.187-0.16-0.41-0.16-0.666h0.94c0 0.142 0.022 0.262 0.066 0.359s0.105 0.177 0.184 0.238c0.081 0.060 0.177 0.104 0.288 0.131 0.112 0.027 0.235 0.041 0.369 0.041 0.162 0 0.296-0.023 0.4-0.069 0.106-0.046 0.184-0.11 0.234-0.191 0.049-0.076 0.078-0.169 0.078-0.268 0-0.003-0-0.005-0-0.008v0zM55.062 15.904v0.216c0 0.346-0.047 0.656-0.141 0.931-0.090 0.271-0.225 0.506-0.399 0.706l0.002-0.003c-0.171 0.192-0.375 0.338-0.613 0.441-0.224 0.097-0.484 0.153-0.758 0.153-0.009 0-0.018-0-0.028-0h0.001c-0.007 0-0.015 0-0.023 0-0.275 0-0.537-0.056-0.774-0.158l0.013 0.005c-0.241-0.106-0.445-0.255-0.611-0.439l-0.001-0.002c-0.173-0.197-0.311-0.432-0.398-0.689l-0.004-0.014c-0.094-0.275-0.141-0.585-0.141-0.931v-0.216c0-0.348 0.047-0.658 0.141-0.931 0.090-0.271 0.225-0.505 0.399-0.706l-0.002 0.003c0.167-0.187 0.371-0.338 0.601-0.439l0.011-0.004c0.225-0.097 0.487-0.154 0.762-0.154 0.008 0 0.016 0 0.023 0h-0.001c0.008-0 0.017-0 0.026-0 0.274 0 0.535 0.056 0.771 0.158l-0.013-0.005c0.238 0.102 0.442 0.25 0.613 0.443 0.173 0.194 0.306 0.428 0.4 0.704 0.096 0.273 0.144 0.583 0.144 0.931zM54.114 16.12v-0.222c0-0.241-0.022-0.454-0.065-0.637-0.039-0.175-0.106-0.33-0.197-0.468l0.003 0.005c-0.079-0.119-0.185-0.214-0.308-0.279l-0.005-0.002c-0.118-0.061-0.257-0.097-0.405-0.097-0.006 0-0.012 0-0.018 0h0.001c-0.158 0-0.298 0.032-0.422 0.097-0.121 0.063-0.224 0.156-0.309 0.281-0.083 0.125-0.147 0.279-0.191 0.463-0.042 0.18-0.066 0.387-0.066 0.6 0 0.013 0 0.026 0 0.039l-0-0.002v0.222c0 0.24 0.022 0.452 0.066 0.637 0.044 0.183 0.108 0.338 0.194 0.466 0.086 0.125 0.189 0.219 0.312 0.284s0.264 0.097 0.422 0.097c0.159 0 0.299-0.032 0.422-0.097 0.127-0.069 0.231-0.165 0.308-0.281l0.002-0.003c0.083-0.127 0.147-0.282 0.191-0.466 0.043-0.185 0.065-0.398 0.065-0.637zM58.853 17.554v0.731h-2.291v-0.731h2.291zM56.866 13.736v4.55h-0.938v-4.55h0.938zM61.989 13.736h0.934v3.006c0 0.35-0.075 0.645-0.225 0.885-0.147 0.237-0.357 0.423-0.607 0.537l-0.009 0.004c-0.261 0.121-0.56 0.181-0.9 0.181s-0.641-0.060-0.906-0.181c-0.259-0.118-0.47-0.304-0.616-0.535l-0.003-0.006c-0.148-0.24-0.222-0.535-0.222-0.885v-3.006h0.938v3.006c0 0.204 0.032 0.371 0.097 0.5s0.157 0.224 0.278 0.284c0.123 0.060 0.268 0.090 0.434 0.090 0.171 0 0.316-0.030 0.435-0.090 0.121-0.062 0.217-0.16 0.273-0.281l0.002-0.004c0.064-0.129 0.097-0.296 0.097-0.5v-3.006zM66.525 16.776h0.934c-0.015 0.304-0.107 0.583-0.257 0.823l0.004-0.007c-0.148 0.238-0.355 0.423-0.622 0.556-0.265 0.134-0.583 0.2-0.956 0.2-0.292 0-0.553-0.050-0.784-0.15-0.235-0.104-0.433-0.252-0.592-0.435l-0.002-0.002c-0.163-0.193-0.29-0.423-0.368-0.674l-0.004-0.014c-0.086-0.269-0.128-0.57-0.128-0.903v-0.315c0-0.334 0.043-0.634 0.131-0.903 0.085-0.266 0.216-0.496 0.384-0.693l-0.002 0.003c0.166-0.19 0.366-0.336 0.597-0.438 0.221-0.097 0.478-0.153 0.748-0.153 0.010 0 0.019 0 0.029 0l-0.001-0c0.379 0 0.699 0.069 0.959 0.207 0.255 0.131 0.462 0.325 0.606 0.562l0.004 0.007c0.146 0.241 0.234 0.517 0.263 0.825h-0.938c-0.010-0.183-0.047-0.338-0.109-0.465-0.061-0.127-0.159-0.227-0.281-0.289l-0.004-0.002c-0.125-0.067-0.292-0.1-0.5-0.1-0.006-0-0.013-0-0.020-0-0.141 0-0.275 0.032-0.395 0.090l0.005-0.002c-0.121 0.063-0.22 0.153-0.292 0.262l-0.002 0.003c-0.079 0.119-0.138 0.269-0.178 0.45-0.036 0.178-0.056 0.382-0.056 0.591 0 0.014 0 0.029 0 0.043l-0-0.002v0.322c0 0.235 0.018 0.442 0.053 0.622 0.036 0.177 0.090 0.327 0.163 0.45 0.075 0.121 0.171 0.213 0.288 0.275 0.118 0.061 0.261 0.091 0.428 0.091 0.196 0 0.358-0.032 0.485-0.094s0.224-0.155 0.29-0.278c0.069-0.123 0.11-0.276 0.122-0.459zM69.264 13.736v4.55h-0.934v-4.55h0.934zM74.071 15.904v0.216c0 0.346-0.047 0.656-0.141 0.931-0.090 0.271-0.225 0.506-0.399 0.706l0.002-0.003c-0.171 0.192-0.375 0.338-0.613 0.441-0.224 0.097-0.484 0.153-0.758 0.153-0.009 0-0.018-0-0.027-0h0.001c-0.007 0-0.015 0-0.024 0-0.275 0-0.536-0.056-0.774-0.158l0.013 0.005c-0.241-0.106-0.445-0.255-0.611-0.439l-0.001-0.002c-0.173-0.198-0.311-0.432-0.399-0.689l-0.004-0.015c-0.094-0.275-0.141-0.585-0.141-0.931v-0.216c0-0.348 0.047-0.658 0.141-0.931 0.090-0.271 0.225-0.505 0.399-0.706l-0.002 0.003c0.167-0.187 0.371-0.338 0.601-0.439l0.011-0.004c0.225-0.097 0.487-0.154 0.762-0.154 0.008 0 0.016 0 0.023 0h-0.001c0.008-0 0.017-0 0.026-0 0.274 0 0.534 0.056 0.771 0.158l-0.013-0.005c0.237 0.102 0.442 0.25 0.613 0.443 0.173 0.194 0.306 0.428 0.4 0.704 0.096 0.273 0.144 0.583 0.144 0.931zM73.125 16.12v-0.222c0-0.011 0-0.024 0-0.037 0-0.213-0.024-0.42-0.070-0.618l0.004 0.019c-0.039-0.175-0.106-0.33-0.197-0.468l0.003 0.005c-0.079-0.119-0.184-0.214-0.308-0.279l-0.005-0.002c-0.118-0.061-0.257-0.097-0.405-0.097-0.006 0-0.012 0-0.018 0h0.001c-0.158 0-0.299 0.032-0.422 0.097-0.127 0.068-0.231 0.163-0.308 0.278l-0.002 0.003c-0.083 0.125-0.147 0.279-0.191 0.463-0.042 0.181-0.066 0.388-0.066 0.601 0 0.013 0 0.026 0 0.038l-0-0.002v0.222c0 0.24 0.022 0.452 0.065 0.637 0.044 0.183 0.108 0.338 0.194 0.466 0.085 0.125 0.19 0.219 0.313 0.284s0.263 0.097 0.422 0.097c0.158 0 0.299-0.032 0.421-0.097s0.226-0.16 0.309-0.284c0.083-0.127 0.147-0.282 0.191-0.466 0.044-0.185 0.066-0.398 0.066-0.637zM78.641 13.736v4.55h-0.938l-1.828-3.050v3.050h-0.937v-4.55h0.937l1.831 3.053v-3.054h0.934zM82.702 17.554v0.731h-2.422v-0.731h2.422zM80.587 13.736v4.55h-0.938v-4.55h0.938zM82.387 15.589v0.712h-2.106v-0.712h2.106zM82.699 13.736v0.734h-2.419v-0.734h2.419zM85.81 17.095c0-0.003 0-0.006 0-0.010 0-0.075-0.014-0.147-0.039-0.213l0.001 0.004c-0.027-0.073-0.073-0.135-0.13-0.181l-0.001-0.001c-0.079-0.064-0.168-0.12-0.265-0.163l-0.007-0.003c-0.121-0.056-0.271-0.114-0.426-0.161l-0.027-0.007c-0.206-0.067-0.402-0.142-0.587-0.225s-0.346-0.181-0.493-0.295l0.006 0.004c-0.134-0.107-0.245-0.236-0.328-0.384l-0.003-0.007c-0.079-0.148-0.119-0.32-0.119-0.516 0-0.19 0.042-0.362 0.125-0.516 0.084-0.156 0.2-0.29 0.35-0.4 0.151-0.112 0.328-0.201 0.519-0.257l0.012-0.003c0.196-0.058 0.421-0.091 0.654-0.091 0.009 0 0.017 0 0.026 0h-0.001c0.335 0 0.628 0.060 0.878 0.181s0.444 0.286 0.582 0.497c0.139 0.21 0.209 0.451 0.209 0.722h-0.931c0-0.133-0.028-0.25-0.085-0.35-0.057-0.104-0.143-0.187-0.247-0.239l-0.003-0.002c-0.11-0.059-0.25-0.088-0.419-0.088-0.162 0-0.298 0.025-0.406 0.075-0.101 0.042-0.184 0.11-0.243 0.195l-0.001 0.002c-0.051 0.076-0.081 0.168-0.081 0.269 0 0.002 0 0.004 0 0.007v-0c0 0.078 0.019 0.147 0.056 0.21 0.039 0.062 0.098 0.121 0.175 0.175s0.172 0.105 0.284 0.153 0.243 0.095 0.39 0.141c0.254 0.075 0.471 0.161 0.677 0.264l-0.024-0.011c0.182 0.088 0.338 0.193 0.477 0.317l-0.002-0.002c0.127 0.117 0.223 0.249 0.288 0.397s0.097 0.315 0.097 0.503c0 0.006 0 0.013 0 0.020 0 0.186-0.043 0.362-0.119 0.519l0.003-0.007c-0.081 0.16-0.194 0.293-0.332 0.395l-0.003 0.002c-0.149 0.109-0.323 0.194-0.511 0.244l-0.011 0.003c-0.195 0.054-0.418 0.085-0.649 0.085-0.010 0-0.021-0-0.031-0h0.002c-0.225 0-0.447-0.029-0.666-0.088-0.227-0.062-0.425-0.155-0.604-0.276l0.007 0.005c-0.176-0.12-0.319-0.275-0.422-0.456l-0.004-0.007c-0.106-0.187-0.16-0.41-0.16-0.666h0.941c0 0.142 0.022 0.262 0.065 0.359s0.106 0.177 0.185 0.238c0.081 0.060 0.177 0.104 0.288 0.131 0.112 0.027 0.235 0.041 0.368 0.041 0.163 0 0.296-0.023 0.4-0.069 0.106-0.046 0.185-0.11 0.234-0.191 0.049-0.076 0.078-0.169 0.078-0.268 0-0.003-0-0.005-0-0.008v0zM90.759 18.286h-0.991l0.006-0.731h0.984c0.246 0 0.453-0.055 0.622-0.166 0.169-0.112 0.296-0.276 0.381-0.491 0.087-0.215 0.131-0.474 0.131-0.778v-0.222c0-0.233-0.025-0.438-0.075-0.615-0.044-0.171-0.118-0.321-0.218-0.45l0.002 0.003c-0.093-0.117-0.211-0.21-0.348-0.27l-0.006-0.002c-0.135-0.059-0.293-0.094-0.458-0.094-0.008 0-0.016 0-0.024 0l0.001-0h-1.019v-0.734h1.019c0.304 0 0.582 0.052 0.834 0.156 0.258 0.104 0.478 0.253 0.659 0.44l0 0c0.186 0.192 0.328 0.421 0.428 0.688 0.102 0.265 0.153 0.56 0.153 0.885v0.216c0 0.323-0.051 0.617-0.153 0.884-0.099 0.267-0.245 0.496-0.429 0.688l0.001-0.001c-0.182 0.187-0.401 0.336-0.647 0.436l-0.013 0.005c-0.242 0.097-0.522 0.153-0.815 0.153-0.010 0-0.020-0-0.030-0l0.002 0zM90.3 13.736v4.55h-0.937v-4.55h0.937zM96.77 17.554v0.731h-2.422v-0.731h2.422zM94.655 13.736v4.55h-0.938v-4.55h0.938zM96.454 15.589v0.712h-2.106v-0.712h2.106zM96.767 13.736v0.734h-2.419v-0.734h2.419zM100.692 18.286h-0.991l0.006-0.731h0.984c0.246 0 0.453-0.055 0.622-0.166 0.169-0.112 0.296-0.276 0.381-0.491 0.088-0.215 0.131-0.474 0.131-0.778v-0.222c0-0.233-0.025-0.438-0.075-0.615-0.044-0.171-0.118-0.321-0.217-0.45l0.002 0.003c-0.093-0.117-0.211-0.21-0.348-0.27l-0.006-0.002c-0.135-0.059-0.293-0.094-0.458-0.094-0.008 0-0.016 0-0.024 0l0.001-0h-1.019v-0.734h1.019c0.304 0 0.582 0.052 0.834 0.156 0.258 0.104 0.478 0.253 0.659 0.44l0 0c0.186 0.192 0.328 0.421 0.428 0.688 0.102 0.265 0.153 0.56 0.153 0.885v0.216c0 0.323-0.051 0.617-0.153 0.884-0.099 0.267-0.245 0.496-0.429 0.688l0.001-0.001c-0.182 0.187-0.401 0.336-0.646 0.436l-0.013 0.005c-0.242 0.097-0.522 0.153-0.815 0.153-0.010 0-0.020-0-0.030-0l0.002 0zM100.232 13.736v4.55h-0.938v-4.55h0.938zM104.646 13.736v4.55h-0.934v-4.55h0.934zM108.085 17.095c0-0.003 0-0.006 0-0.010 0-0.075-0.014-0.147-0.039-0.213l0.001 0.004c-0.027-0.073-0.073-0.135-0.13-0.181l-0.001-0.001c-0.079-0.064-0.168-0.12-0.265-0.163l-0.007-0.003c-0.121-0.056-0.272-0.114-0.426-0.161l-0.027-0.007c-0.206-0.067-0.402-0.142-0.587-0.225s-0.346-0.181-0.493-0.295l0.006 0.004c-0.134-0.107-0.245-0.237-0.328-0.384l-0.003-0.007c-0.079-0.148-0.119-0.32-0.119-0.516 0-0.19 0.042-0.362 0.125-0.516 0.084-0.156 0.2-0.29 0.35-0.4 0.151-0.112 0.328-0.201 0.519-0.257l0.012-0.003c0.196-0.058 0.421-0.091 0.654-0.091 0.009 0 0.017 0 0.026 0h-0.001c0.335 0 0.628 0.060 0.878 0.181s0.443 0.286 0.581 0.497c0.139 0.21 0.209 0.451 0.209 0.722h-0.931c0-0.133-0.028-0.25-0.085-0.35-0.057-0.105-0.143-0.187-0.247-0.239l-0.003-0.002c-0.11-0.059-0.25-0.088-0.419-0.088-0.162 0-0.298 0.025-0.406 0.075-0.101 0.042-0.184 0.11-0.242 0.195l-0.001 0.002c-0.051 0.075-0.081 0.168-0.081 0.268 0 0.002 0 0.005 0 0.007v-0c0 0.078 0.019 0.147 0.056 0.21 0.039 0.062 0.098 0.121 0.175 0.175s0.172 0.105 0.284 0.153 0.243 0.095 0.39 0.141c0.254 0.075 0.471 0.161 0.677 0.264l-0.024-0.011c0.182 0.088 0.338 0.193 0.477 0.317l-0.002-0.002c0.127 0.117 0.223 0.249 0.288 0.397s0.097 0.315 0.097 0.503c0 0.198-0.038 0.375-0.116 0.532-0.081 0.16-0.194 0.293-0.332 0.395l-0.003 0.002c-0.149 0.109-0.323 0.194-0.511 0.244l-0.011 0.003c-0.195 0.054-0.418 0.085-0.649 0.085-0.010 0-0.021-0-0.031-0h0.002c-0.225 0-0.447-0.029-0.666-0.088-0.227-0.062-0.425-0.155-0.604-0.276l0.007 0.005c-0.176-0.12-0.319-0.275-0.422-0.456l-0.004-0.007c-0.106-0.187-0.16-0.41-0.16-0.666h0.941c0 0.142 0.022 0.262 0.066 0.359s0.105 0.177 0.184 0.238c0.081 0.060 0.177 0.104 0.288 0.131 0.112 0.027 0.235 0.041 0.368 0.041 0.163 0 0.296-0.023 0.4-0.069 0.106-0.046 0.185-0.11 0.234-0.191 0.049-0.076 0.078-0.169 0.078-0.268 0-0.003-0-0.005-0-0.008v0zM112.905 17.554v0.731h-2.422v-0.731h2.422zM110.79 13.736v4.55h-0.938v-4.55h0.938zM112.59 15.589v0.712h-2.106v-0.712h2.106zM112.902 13.736v0.734h-2.419v-0.734h2.419zM117.347 13.736v4.55h-0.938l-1.828-3.050v3.050h-0.938v-4.55h0.938l1.831 3.053v-3.054h0.934zM116.163 12.533l0.519 0.034c0 0.152-0.030 0.291-0.091 0.416-0.059 0.121-0.144 0.22-0.248 0.295l-0.002 0.002c-0.1 0.069-0.223 0.11-0.356 0.11-0.004 0-0.007-0-0.011-0h0.001c-0.1 0-0.186-0.014-0.259-0.041-0.077-0.029-0.141-0.061-0.203-0.097l0.006 0.003c-0.053-0.034-0.115-0.066-0.179-0.094l-0.009-0.003c-0.061-0.026-0.132-0.041-0.206-0.041-0.004 0-0.007 0-0.011 0h0.001c-0.001 0-0.002-0-0.003-0-0.072 0-0.138 0.030-0.184 0.078l-0 0c-0.050 0.052-0.075 0.127-0.075 0.225l-0.522-0.028c0-0.15 0.030-0.288 0.091-0.412s0.144-0.225 0.25-0.3c0.106-0.077 0.227-0.116 0.362-0.116 0.085 0 0.164 0.015 0.234 0.044 0.071 0.027 0.138 0.059 0.203 0.094 0.067 0.036 0.134 0.067 0.203 0.094s0.142 0.041 0.219 0.041c0.073 0 0.135-0.027 0.187-0.079 0.054-0.054 0.081-0.129 0.081-0.225zM122.092 15.904v0.216c0 0.346-0.047 0.656-0.141 0.931-0.090 0.271-0.225 0.506-0.399 0.706l0.002-0.003c-0.171 0.192-0.375 0.338-0.613 0.441-0.224 0.097-0.484 0.153-0.758 0.153-0.009 0-0.018-0-0.028-0h0.001c-0.007 0-0.015 0-0.023 0-0.275 0-0.536-0.056-0.773-0.158l0.013 0.005c-0.241-0.106-0.445-0.255-0.611-0.439l-0.001-0.002c-0.173-0.198-0.311-0.432-0.399-0.689l-0.004-0.015c-0.094-0.275-0.141-0.585-0.141-0.931v-0.216c0-0.348 0.047-0.658 0.141-0.931 0.090-0.271 0.225-0.505 0.399-0.706l-0.002 0.003c0.167-0.187 0.371-0.338 0.601-0.439l0.011-0.004c0.225-0.097 0.487-0.154 0.762-0.154 0.008 0 0.016 0 0.024 0h-0.001c0.008-0 0.017-0 0.026-0 0.274 0 0.534 0.056 0.771 0.158l-0.013-0.005c0.237 0.102 0.442 0.25 0.612 0.443 0.173 0.194 0.306 0.428 0.4 0.704 0.096 0.273 0.144 0.583 0.144 0.931zM121.146 16.12v-0.222c0-0.011 0-0.024 0-0.037 0-0.213-0.024-0.42-0.070-0.618l0.004 0.019c-0.039-0.175-0.106-0.33-0.197-0.468l0.003 0.005c-0.079-0.119-0.184-0.214-0.308-0.279l-0.005-0.002c-0.118-0.061-0.257-0.097-0.405-0.097-0.006 0-0.012 0-0.018 0h0.001c-0.159 0-0.299 0.032-0.422 0.097-0.127 0.068-0.231 0.163-0.308 0.278l-0.002 0.003c-0.083 0.125-0.147 0.279-0.191 0.463-0.042 0.18-0.066 0.386-0.066 0.598 0 0.014 0 0.027 0 0.041l-0-0.002v0.222c0 0.24 0.022 0.452 0.065 0.637 0.044 0.183 0.108 0.338 0.194 0.466 0.085 0.125 0.19 0.219 0.313 0.284s0.263 0.097 0.421 0.097c0.159 0 0.299-0.032 0.422-0.097s0.226-0.16 0.309-0.284c0.083-0.127 0.147-0.282 0.191-0.466 0.044-0.185 0.066-0.398 0.066-0.637z"></path>
</symbol>
</defs>
</svg>
